<svg width="57" height="57" viewBox="0 0 57 57" fill="none" xmlns="http://www.w3.org/2000/svg">
<circle cx="28.5" cy="28.5" r="27.5" stroke="#6F4E37" stroke-width="2"/>
<path d="M28.5 13.4198C32.3746 13.4198 35.5156 16.5608 35.5156 20.4355C35.5156 24.3101 32.3746 27.4511 28.5 27.4511C24.6254 27.4511 21.4844 24.3101 21.4844 20.4355C21.4844 16.5608 24.6254 13.4198 28.5 13.4198Z" stroke="#6F4E37" stroke-width="2"/>
<mask id="path-3-inside-1_2_3998" fill="white">
<path d="M28.5002 33.06C38.0777 33.0601 46.5516 37.7845 51.719 45.0298C46.5516 52.2753 38.0778 57.0004 28.5002 57.0005C18.9227 57.0005 10.4489 52.2752 5.28149 45.0298C10.449 37.7845 18.9228 33.06 28.5002 33.06Z"/>
</mask>
<path d="M28.5002 33.06L28.5003 31.06H28.5002V33.06ZM51.719 45.0298L53.3473 46.1911L54.1755 45.0297L53.3473 43.8685L51.719 45.0298ZM28.5002 57.0005V59.0005H28.5003L28.5002 57.0005ZM5.28149 45.0298L3.65321 43.8684L2.82494 45.0297L3.65319 46.1911L5.28149 45.0298ZM28.5002 33.06L28.5002 35.06C37.404 35.0601 45.2825 39.4494 50.0907 46.1911L51.719 45.0298L53.3473 43.8685C47.8207 36.1195 38.7514 31.0601 28.5003 31.06L28.5002 33.06ZM51.719 45.0298L50.0907 43.8685C45.2824 50.6104 37.404 55.0004 28.5002 55.0005L28.5002 57.0005L28.5003 59.0005C38.7517 59.0004 47.8208 53.9401 53.3473 46.1911L51.719 45.0298ZM28.5002 57.0005V55.0005C19.5965 55.0005 11.7181 50.6104 6.9098 43.8685L5.28149 45.0298L3.65319 46.1911C9.17975 53.9401 18.2488 59.0005 28.5002 59.0005V57.0005ZM5.28149 45.0298L6.90978 46.1911C11.7181 39.4494 19.5965 35.06 28.5002 35.06V33.06V31.06C18.2491 31.06 9.17986 36.1196 3.65321 43.8684L5.28149 45.0298Z" fill="#6F4E37" mask="url(#path-3-inside-1_2_3998)"/>
</svg>
