<svg width="28" height="54" viewBox="0 0 28 54" fill="none" xmlns="http://www.w3.org/2000/svg">
<path d="M23.9578 1.50294L0.63878 25.4249C0.229217 25.8451 0 26.4087 0 26.9954C0 27.5822 0.229217 28.1458 0.63878 28.5659L23.9578 52.497C24.1486 52.6929 24.3767 52.8486 24.6286 52.955C24.8806 53.0613 25.1513 53.1161 25.4248 53.1161C25.6983 53.1161 25.969 53.0613 26.2209 52.955C26.4729 52.8486 26.701 52.6929 26.8918 52.497C27.2843 52.0951 27.5041 51.5557 27.5041 50.9939C27.5041 50.4322 27.2843 49.8928 26.8918 49.4909L4.96328 26.9954L26.8918 4.50444C27.283 4.10283 27.5019 3.56434 27.5019 3.00369C27.5019 2.44305 27.283 1.90456 26.8918 1.50294C26.701 1.307 26.4729 1.15126 26.2209 1.04492C25.969 0.938577 25.6983 0.883789 25.4248 0.883789C25.1513 0.883789 24.8806 0.938577 24.6286 1.04492C24.3767 1.15126 24.1486 1.307 23.9578 1.50294Z" fill="#6F4E37"/>
</svg>
