<svg width="59" height="61" viewBox="0 0 59 61" fill="none" xmlns="http://www.w3.org/2000/svg">
<path d="M22.7891 1H35.7686C37.6324 1 39.2472 2.09424 40 3.6748L40.2686 4.23926L40.8936 4.24512C43.1142 4.26462 44.6738 4.37122 46.0283 4.90039C47.6973 5.55324 49.1488 6.66243 50.2168 8.10156H50.2178C51.2726 9.52135 51.7923 11.3688 52.5732 14.251V14.252L54.9814 23.085L54.9883 23.1113L54.9971 23.1377L55.9062 25.8672L55.9619 26.0361L56.0742 26.1758L56.1514 26.2734C57.3788 27.8515 57.7704 29.8693 57.4521 33C57.1306 36.1629 56.1097 40.2553 54.71 45.8525C53.8181 49.4182 53.17 52.0059 52.4238 53.9658C51.6873 55.9004 50.8924 57.117 49.7686 57.9951C48.645 58.8714 47.272 59.3471 45.2168 59.5928C43.1343 59.8416 40.4659 59.8437 36.791 59.8438H21.7666C18.0917 59.8437 15.4233 59.8416 13.3408 59.5928C11.2852 59.3471 9.9118 58.8717 8.78809 57.9951H8.78906C7.66506 57.1169 6.86968 55.9002 6.13281 53.9658C5.57299 52.4962 5.06837 50.6732 4.47559 48.3496L3.84766 45.8525C2.44793 40.2553 1.42702 36.1629 1.10547 33C0.787203 29.8693 1.1788 27.8515 2.40625 26.2734L2.4834 26.1758L2.59473 26.0361L2.65137 25.8672L3.56055 23.1377L3.56934 23.1113L3.57617 23.085L5.98438 14.252C6.76895 11.3685 7.28844 9.51808 8.34082 8.09766L8.33984 8.09668C9.40806 6.65924 10.8603 5.55229 12.5283 4.90039C13.8832 4.37096 15.4411 4.26136 17.6621 4.24512L18.29 4.24023L18.5586 3.67383C19.3078 2.09523 20.9244 1 22.7891 1ZM39.9922 7.68652C39.6126 8.48546 39.0142 9.16108 38.2666 9.63379C37.5191 10.1063 36.6529 10.3571 35.7686 10.3574H22.7891C21.9049 10.3573 21.0386 10.1069 20.291 9.63477C19.5422 9.16177 18.9438 8.4896 18.5645 7.69238L18.29 7.11523L17.6514 7.12207C15.8 7.14165 14.7643 7.19994 13.9229 7.45312L13.5723 7.57422C12.4046 8.03089 11.3888 8.80666 10.6416 9.81348C10.2692 10.3149 10.0013 10.8843 9.71191 11.7285C9.42613 12.5621 9.09834 13.7286 8.62988 15.4521L6.78027 22.2314L6.36426 23.7568L7.9209 23.4785C11.1222 22.9074 15.5382 22.9033 21.7637 22.9033H36.791C43.0195 22.9033 47.4333 22.9075 50.6357 23.4727L52.1885 23.7471L51.7744 22.2246L49.9277 15.4463C49.4592 13.7223 49.1315 12.5554 48.8457 11.7217C48.5563 10.8776 48.2883 10.309 47.916 9.80762C47.2153 8.86337 46.279 8.12155 45.2021 7.65625L44.9854 7.56738C44.0727 7.2106 43.022 7.13858 40.9062 7.11621L40.2666 7.10938L39.9922 7.68652Z" stroke="#6F4E37" stroke-width="2"/>
<path d="M45.0327 33.4568V46.6608C45.0327 46.9325 44.9963 47.2055 44.9188 47.4659C42.7331 54.8097 37.5911 58.5357 34.8544 59.6858C34.5458 59.8156 34.2133 59.8669 33.8785 59.8669H23.3089C23.0343 59.8669 22.7577 59.8298 22.4951 59.7497C14.2859 57.2463 11.4935 50.2858 11.1257 47.0703V33.7291M45.0327 33.4568C41.9723 29.9426 21.5093 25.8916 11.3437 33.2951C11.2051 33.3961 11.1257 33.5576 11.1257 33.7291M45.0327 33.4568C32.7029 38.6844 17.2906 36.1795 11.1257 33.7291" stroke="#6F4E37" stroke-width="2"/>
<path d="M45.0327 36.0442C48.1317 35.8441 53.5095 37.2632 53.5095 42.3666C53.5095 48.075 47.038 49.271 45.0327 49.271" stroke="#6F4E37" stroke-width="2"/>
</svg>
