<svg width="20" height="23" viewBox="0 0 20 23" fill="none" xmlns="http://www.w3.org/2000/svg">
<path fill-rule="evenodd" clip-rule="evenodd" d="M12.4772 1C11.833 1.96993 11.3248 4.15555 12.4772 6.23761C13.7657 8.56544 18.2752 9.72936 18.9195 13.8031C19.5637 17.8768 16.3426 22.5324 9.25611 21.9505C2.16964 21.3685 -2.33996 12.6391 4.10229 7.98349C3.45806 11.4752 4.10227 13.8031 5.39072 13.8031C7.32339 13.8031 4.10229 10.8933 6.03496 6.23761C6.67918 4.49174 8.61186 2.74587 12.4772 1ZM13.7657 16.7128C12.6724 19.6757 9.25608 18.6527 7.96763 17.8768C8.61186 17.8768 9.74547 17.2136 10.5445 16.1309C11.2641 15.1559 10.979 13.9994 10.6993 12.8642C10.478 11.9666 10.2601 11.0822 10.5445 10.3113C10.7593 10.8933 11.3319 11.4106 11.9523 11.971C13.193 13.0918 14.6246 14.385 13.7657 16.7128Z" fill="#6F4E37"/>
<path d="M7.96763 17.8768C9.25608 18.6527 12.6724 19.6757 13.7657 16.7128C14.6246 14.385 13.193 13.0918 11.9523 11.971C11.3319 11.4106 10.7593 10.8933 10.5445 10.3113C10.2601 11.0822 10.478 11.9666 10.6993 12.8642C10.979 13.9994 11.2641 15.1559 10.5445 16.1309C9.74547 17.2136 8.61186 17.8768 7.96763 17.8768Z" fill="#EDE4CC"/>
<path fill-rule="evenodd" clip-rule="evenodd" d="M12.4772 1C11.833 1.96993 11.3248 4.15555 12.4772 6.23761C13.7657 8.56544 18.2752 9.72936 18.9195 13.8031C19.5637 17.8768 16.3426 22.5324 9.25611 21.9505C2.16964 21.3685 -2.33996 12.6391 4.10229 7.98349C3.45806 11.4752 4.10227 13.8031 5.39072 13.8031C7.32339 13.8031 4.10229 10.8933 6.03496 6.23761C6.67918 4.49174 8.61186 2.74587 12.4772 1ZM13.7657 16.7128C12.6724 19.6757 9.25608 18.6527 7.96763 17.8768C8.61186 17.8768 9.74547 17.2136 10.5445 16.1309C11.2641 15.1559 10.979 13.9994 10.6993 12.8642C10.478 11.9666 10.2601 11.0822 10.5445 10.3113C10.7593 10.8933 11.3319 11.4106 11.9523 11.971C13.193 13.0918 14.6246 14.385 13.7657 16.7128Z" stroke="#6F4E37" stroke-width="0.4"/>
<path d="M7.96763 17.8768C9.25608 18.6527 12.6724 19.6757 13.7657 16.7128C14.6246 14.385 13.193 13.0918 11.9523 11.971C11.3319 11.4106 10.7593 10.8933 10.5445 10.3113C10.2601 11.0822 10.478 11.9666 10.6993 12.8642C10.979 13.9994 11.2641 15.1559 10.5445 16.1309C9.74547 17.2136 8.61186 17.8768 7.96763 17.8768Z" stroke="#6F4E37" stroke-width="0.4"/>
</svg>
