<svg width="20" height="38" viewBox="0 0 20 38" fill="none" xmlns="http://www.w3.org/2000/svg">
<path d="M10 32.375C12.3012 32.375 14.167 33.4943 14.167 34.875C14.1668 36.2556 12.3011 37.375 10 37.375C7.69902 37.3749 5.83417 36.2556 5.83398 34.875C5.83398 33.4943 7.69891 32.3751 10 32.375ZM10 0.625C15.5228 0.625 20 4.67732 20 10.625C19.9999 12.3939 19.5816 13.8382 18.9111 15.0674L10 32.292L0.9375 14.7871H0.941406C0.357336 13.6198 7.10725e-05 12.261 0 10.625C1.39589e-06 4.67732 4.47715 0.625 10 0.625ZM10 1.36133C4.93784 1.36154 0.83342 5.1152 0.833008 10.624C0.833087 12.3234 1.24532 13.7005 1.90039 14.8662L9.97363 30.624L18.0146 15.0088C18.7176 13.8127 19.1659 12.3939 19.166 10.624C19.1656 5.11517 15.0622 1.36149 10 1.36133ZM10 7.20801C12.3011 7.20801 14.1668 9.07302 14.167 11.374C14.167 13.6752 12.3012 15.541 10 15.541C7.69886 15.541 5.83301 13.6752 5.83301 11.374C5.83323 9.07306 7.699 7.20806 10 7.20801Z" fill="#6F4E37"/>
</svg>
