<svg width="74" height="86" viewBox="0 0 74 86" fill="none" xmlns="http://www.w3.org/2000/svg">
<path d="M21.3946 7.47559C20.779 8.18594 20.0307 10.2318 21.9629 12.7322C23.8951 15.2326 23.0521 16.9943 22.3891 17.5626" stroke="#EDE4CC" stroke-width="2" stroke-linecap="round"/>
<path d="M18.3731 13.8689C17.7575 14.5792 17.0093 16.6251 18.9414 19.1255C20.8736 21.626 20.0306 23.3876 19.3676 23.9559" stroke="#EDE4CC" stroke-width="2" stroke-linecap="round"/>
<path d="M28.214 29.7808V36.486C28.214 36.7504 28.1811 37.0143 28.1038 37.2671C27.0308 40.7767 24.6977 42.6608 23.2912 43.3568C22.983 43.5093 22.6395 43.5616 22.2957 43.5616H17.4159C17.1336 43.5616 16.8516 43.5248 16.5844 43.4341C12.5794 42.0751 11.2068 38.5346 11.0234 36.8843V29.9228M28.214 29.7808C26.6626 27.9473 16.2907 25.8338 11.1361 29.6948C11.0644 29.7485 11.0234 29.8332 11.0234 29.9228M28.214 29.7808C21.9629 32.5085 14.149 31.2015 11.0234 29.9228" stroke="#EDE4CC" stroke-width="2"/>
<path d="M28.7823 31.3436C30.3924 31.2489 32.7603 31.9119 32.7603 34.3271C32.7603 37.0287 29.3979 37.5947 28.3561 37.5947" stroke="#EDE4CC" stroke-width="2"/>
<path d="M1.22058 43.9878H37.0224" stroke="#EDE4CC" stroke-width="2"/>
<path d="M37.3065 0.79834V71.4075M37.3065 71.4075V84.0518H50.5191C50.4502 83.19 50.564 82.9152 50.0929 81.0683M37.3065 71.4075C38.6637 71.2944 39.8915 71.3847 41.0004 71.6366M41.0004 71.6366L57.9068 7.19152M41.0004 71.6366C41.9352 71.8489 42.7856 72.1761 43.5576 72.5929M41.0004 71.6366L43.5576 72.5929M43.5576 72.5929L71.4035 25.3766M43.5576 72.5929C44.8994 73.3172 45.1204 73.5385 46.6832 74.9592M73.1083 49.2444L46.6832 74.9592M46.6832 74.9592C47.304 75.7399 48.0915 76.7894 48.5301 77.6586M48.5301 77.6586L73.1083 63.7357M48.5301 77.6586C49.155 78.8971 49.6218 79.2214 50.0929 81.0683M73.1083 75.4463L50.0929 81.0683" stroke="#EDE4CC" stroke-width="2"/>
<path d="M72.8242 84.1938H1.07847L1.07847 40.2939C0.226045 28.9282 5.90888 -0.764507 37.8748 1.08241C63.4475 2.55995 73.9607 23.3875 72.8242 38.1628V84.1938Z" stroke="#EDE4CC" stroke-width="2"/>
<path d="M31.7762 58.6765C32.7782 59.552 33.2638 60.9617 33.11 62.6548C32.9562 64.3464 32.1616 66.2409 30.7153 67.8961C29.2691 69.551 27.4987 70.592 25.8431 70.9711C24.186 71.3506 22.7239 71.0584 21.7219 70.1828C20.7201 69.3073 20.235 67.898 20.3889 66.2052C20.5426 64.5136 21.3367 62.6197 22.7829 60.9646C24.2292 59.3094 25.9999 58.268 27.6557 57.8888C29.3127 57.5094 30.7742 57.8011 31.7762 58.6765Z" stroke="#EDE4CC" stroke-width="2"/>
<path d="M31.9078 58.6211C30.6292 58.8105 27.39 60.7522 26.3671 65.2984C25.3441 69.8447 22.0576 70.2235 20.8263 69.8447" stroke="#EDE4CC" stroke-width="2"/>
<path d="M6.27087 49.9005C7.11303 48.8702 8.50604 48.3386 10.2032 48.4367C11.899 48.5348 13.8185 49.2667 15.5203 50.6578C17.2219 52.0489 18.3205 53.7841 18.7538 55.4264C19.1876 57.0701 18.9436 58.5411 18.1014 59.5713C17.2592 60.6013 15.8667 61.1324 14.1697 61.0343C12.474 60.9362 10.555 60.2047 8.8533 58.8138C7.15145 57.4226 6.05242 55.687 5.61905 54.0446C5.18537 52.401 5.42891 50.9307 6.27087 49.9005Z" stroke="#EDE4CC" stroke-width="2"/>
<path d="M6.2112 49.7709C6.44253 51.0426 8.48955 54.2163 13.067 55.0893C17.6444 55.9622 18.131 59.2346 17.7928 60.4776" stroke="#EDE4CC" stroke-width="2"/>
<path d="M18.4217 78.9028C17.582 79.9351 16.1903 80.47 14.4928 80.376C12.7968 80.2819 10.8756 79.5546 9.17044 78.1675C7.46553 76.7805 6.36286 75.0479 5.92558 73.4067C5.48795 71.7639 5.72844 70.2925 6.56814 69.2602C7.40787 68.2282 8.79914 67.6938 10.4964 67.7878C12.1923 67.8819 14.113 68.6088 15.818 69.9957C17.5232 71.3828 18.6263 73.1157 19.0636 74.7571C19.5012 76.3997 19.2612 77.8706 18.4217 78.9028Z" stroke="#EDE4CC" stroke-width="2"/>
<path d="M18.4817 79.0324C18.2473 77.7612 16.1928 74.5925 11.6133 73.7304C7.03379 72.8683 6.53935 69.5972 6.87457 68.3533" stroke="#EDE4CC" stroke-width="2"/>
</svg>
