<svg width="74" height="86" viewBox="0 0 74 86" fill="none" xmlns="http://www.w3.org/2000/svg">
<path d="M21.3946 7.47554C20.779 8.18589 20.0307 10.2317 21.9629 12.7322C23.8951 15.2326 23.0521 16.9943 22.3891 17.5626" stroke="#6F4E37" stroke-width="2" stroke-linecap="round"/>
<path d="M18.3731 13.8687C17.7575 14.5791 17.0093 16.6249 18.9414 19.1253C20.8736 21.6258 20.0306 23.3875 19.3676 23.9557" stroke="#6F4E37" stroke-width="2" stroke-linecap="round"/>
<path d="M28.214 29.7807V36.4859C28.214 36.7503 28.1811 37.0142 28.1038 37.267C27.0308 40.7765 24.6977 42.6607 23.2912 43.3567C22.983 43.5092 22.6395 43.5615 22.2957 43.5615H17.4159C17.1336 43.5615 16.8516 43.5247 16.5844 43.434C12.5794 42.075 11.2068 38.5345 11.0234 36.8842V29.9227M28.214 29.7807C26.6626 27.9472 16.2907 25.8337 11.1361 29.6947C11.0644 29.7484 11.0234 29.8331 11.0234 29.9227M28.214 29.7807C21.9629 32.5084 14.149 31.2013 11.0234 29.9227" stroke="#6F4E37" stroke-width="2"/>
<path d="M28.7823 31.3434C30.3924 31.2487 32.7603 31.9117 32.7603 34.3269C32.7603 37.0285 29.3979 37.5945 28.3561 37.5945" stroke="#6F4E37" stroke-width="2"/>
<path d="M1.22058 43.9877H37.0224" stroke="#6F4E37" stroke-width="2"/>
<path d="M37.3065 0.798219V71.4074M37.3065 71.4074V84.0516H50.5191C50.4502 83.1899 50.564 82.9151 50.0929 81.0682M37.3065 71.4074C38.6637 71.2943 39.8915 71.3846 41.0004 71.6365M41.0004 71.6365L57.9068 7.1914M41.0004 71.6365C41.9352 71.8488 42.7856 72.176 43.5576 72.5928M41.0004 71.6365L43.5576 72.5928M43.5576 72.5928L71.4035 25.3764M43.5576 72.5928C44.8994 73.3171 45.1204 73.5384 46.6832 74.9591M73.1083 49.2443L46.6832 74.9591M46.6832 74.9591C47.304 75.7398 48.0915 76.7893 48.5301 77.6585M48.5301 77.6585L73.1083 63.7355M48.5301 77.6585C49.155 78.897 49.6218 79.2212 50.0929 81.0682M73.1083 75.4462L50.0929 81.0682" stroke="#6F4E37" stroke-width="2"/>
<path d="M72.8242 84.1938H1.07847L1.07847 40.2939C0.226045 28.9282 5.90888 -0.764524 37.8748 1.08239C63.4475 2.55993 73.9607 23.3875 72.8242 38.1628V84.1938Z" stroke="#6F4E37" stroke-width="2"/>
<path d="M31.7762 58.6764C32.7782 59.552 33.2638 60.9617 33.11 62.6548C32.9562 64.3464 32.1616 66.2409 30.7153 67.896C29.2691 69.551 27.4987 70.5919 25.8431 70.9711C24.186 71.3506 22.7239 71.0584 21.7219 70.1828C20.7201 69.3072 20.235 67.898 20.3889 66.2051C20.5426 64.5136 21.3367 62.6197 22.7829 60.9646C24.2292 59.3094 25.9999 58.268 27.6557 57.8888C29.3127 57.5094 30.7742 57.8011 31.7762 58.6764Z" stroke="#6F4E37" stroke-width="2"/>
<path d="M31.9078 58.621C30.6292 58.8104 27.39 60.752 26.3671 65.2983C25.3441 69.8446 22.0576 70.2234 20.8263 69.8446" stroke="#6F4E37" stroke-width="2"/>
<path d="M6.27087 49.9005C7.11303 48.8703 8.50604 48.3386 10.2032 48.4368C11.899 48.5349 13.8185 49.2668 15.5203 50.6579C17.2219 52.049 18.3205 53.7842 18.7538 55.4265C19.1876 57.0702 18.9436 58.5411 18.1014 59.5714C17.2592 60.6014 15.8667 61.1325 14.1697 61.0344C12.474 60.9363 10.555 60.2048 8.8533 58.8139C7.15145 57.4227 6.05242 55.6871 5.61905 54.0447C5.18537 52.4011 5.42891 50.9308 6.27087 49.9005Z" stroke="#6F4E37" stroke-width="2"/>
<path d="M6.2112 49.7709C6.44253 51.0426 8.48955 54.2162 13.067 55.0892C17.6444 55.9622 18.131 59.2345 17.7928 60.4776" stroke="#6F4E37" stroke-width="2"/>
<path d="M18.4217 78.9028C17.582 79.9351 16.1903 80.47 14.4928 80.3759C12.7968 80.2819 10.8756 79.5546 9.17044 78.1675C7.46553 76.7805 6.36286 75.0479 5.92558 73.4067C5.48795 71.7639 5.72844 70.2924 6.56814 69.2602C7.40787 68.2282 8.79914 67.6938 10.4964 67.7878C12.1923 67.8819 14.113 68.6088 15.818 69.9957C17.5232 71.3828 18.6263 73.1157 19.0636 74.7571C19.5012 76.3997 19.2612 77.8706 18.4217 78.9028Z" stroke="#6F4E37" stroke-width="2"/>
<path d="M18.4817 79.0324C18.2473 77.7612 16.1928 74.5924 11.6133 73.7304C7.03379 72.8683 6.53935 69.5971 6.87457 68.3533" stroke="#6F4E37" stroke-width="2"/>
</svg>
