<svg width="59" height="59" viewBox="0 0 59 59" fill="none" xmlns="http://www.w3.org/2000/svg">
<circle cx="29.5" cy="29.5" r="29" stroke="#463B34"/>
<circle cx="29.5" cy="29.5" r="28.5" fill="#ACD0D6"/>
<mask id="path-3-outside-1_308_12" maskUnits="userSpaceOnUse" x="2.28174" y="34.7736" width="54" height="24" fill="black">
<rect fill="white" x="2.28174" y="34.7736" width="54" height="24"/>
<path d="M29.3208 35.7736C39.6659 35.7736 49.0071 37.7121 55.6587 40.8263C51.2776 50.9308 41.2154 58 29.5005 58.0001C17.7319 58.0001 7.63064 50.8662 3.28174 40.6876C9.91284 37.6545 19.1298 35.7736 29.3208 35.7736Z"/>
</mask>
<path d="M29.3208 35.7736C39.6659 35.7736 49.0071 37.7121 55.6587 40.8263C51.2776 50.9308 41.2154 58 29.5005 58.0001C17.7319 58.0001 7.63064 50.8662 3.28174 40.6876C9.91284 37.6545 19.1298 35.7736 29.3208 35.7736Z" fill="#536654"/>
<path d="M29.3208 35.7736V35.3736V35.7736ZM55.6587 40.8263L56.0257 40.9854L56.1803 40.6288L55.8283 40.464L55.6587 40.8263ZM29.5005 58.0001V58.4001H29.5005L29.5005 58.0001ZM3.28174 40.6876L3.11535 40.3239L2.76066 40.4861L2.91391 40.8448L3.28174 40.6876ZM29.3208 35.7736V36.1736C39.6219 36.1736 48.9024 38.1048 55.4891 41.1886L55.6587 40.8263L55.8283 40.464C49.1117 37.3195 39.7098 35.3736 29.3208 35.3736V35.7736ZM55.6587 40.8263L55.2917 40.6672C50.9717 50.6307 41.0503 57.6 29.5005 57.6001L29.5005 58.0001L29.5005 58.4001C41.3805 58.4 51.5835 51.2309 56.0257 40.9854L55.6587 40.8263ZM29.5005 58.0001V57.6001C17.8978 57.6001 7.93779 50.567 3.64957 40.5305L3.28174 40.6876L2.91391 40.8448C7.32348 51.1654 17.5661 58.4001 29.5005 58.4001V58.0001ZM3.28174 40.6876L3.44812 41.0514C10.0157 38.0473 19.1733 36.1736 29.3208 36.1736V35.7736V35.3736C19.0862 35.3736 9.80997 37.2617 3.11535 40.3239L3.28174 40.6876Z" fill="#463B34" mask="url(#path-3-outside-1_308_12)"/>
<path d="M18.168 11.0377C19.6198 11.0379 20.7969 12.2148 20.7969 13.6666C20.7969 13.9741 20.7415 14.2684 20.6445 14.5426H20.7969C22.0067 14.5427 22.9873 15.5242 22.9873 16.734C22.9872 17.9437 22.0066 18.9243 20.7969 18.9244H15.5391C15.4298 18.9244 15.3227 18.9125 15.2178 18.8971C15.1078 18.9125 14.996 18.9244 14.8818 18.9244C13.5509 18.9244 12.4717 17.8452 12.4717 16.5143C12.4719 15.1835 13.551 14.1051 14.8818 14.1051C15.1304 14.1051 15.3701 14.1426 15.5957 14.2125C15.5585 14.0364 15.5391 13.8538 15.5391 13.6666C15.5391 12.2147 16.7161 11.0377 18.168 11.0377Z" fill="white"/>
<path d="M18.168 11.0377L18.168 10.8377H18.168V11.0377ZM20.7969 13.6666H20.9969V13.6666L20.7969 13.6666ZM20.6445 14.5426L20.456 14.4759L20.3617 14.7426H20.6445V14.5426ZM20.7969 14.5426L20.7969 14.3426H20.7969V14.5426ZM22.9873 16.734L23.1873 16.734V16.734H22.9873ZM20.7969 18.9244V19.1244H20.7969L20.7969 18.9244ZM15.2178 18.8971L15.2469 18.6992L15.2185 18.695L15.1901 18.699L15.2178 18.8971ZM14.8818 18.9244V19.1244H14.8819L14.8818 18.9244ZM12.4717 16.5143L12.2717 16.5143V16.5143H12.4717ZM14.8818 14.1051L14.8819 13.9051H14.8818V14.1051ZM15.5957 14.2125L15.5365 14.4036L15.8617 14.5043L15.7914 14.1712L15.5957 14.2125ZM15.5391 13.6666L15.3391 13.6666V13.6666H15.5391ZM18.168 11.0377L18.1679 11.2377C19.5093 11.2379 20.5969 12.3253 20.5969 13.6666L20.7969 13.6666L20.9969 13.6666C20.9969 12.1043 19.7302 10.8379 18.168 10.8377L18.168 11.0377ZM20.7969 13.6666H20.5969C20.5969 13.9498 20.5459 14.2216 20.456 14.4759L20.6445 14.5426L20.8331 14.6093C20.9371 14.3151 20.9969 13.9983 20.9969 13.6666H20.7969ZM20.6445 14.5426V14.7426H20.7969V14.5426V14.3426H20.6445V14.5426ZM20.7969 14.5426L20.7969 14.7426C21.8961 14.7427 22.7873 15.6345 22.7873 16.734H22.9873H23.1873C23.1873 15.4138 22.1172 14.3427 20.7969 14.3426L20.7969 14.5426ZM22.9873 16.734L22.7873 16.734C22.7872 17.8333 21.8961 18.7243 20.7969 18.7244L20.7969 18.9244L20.7969 19.1244C22.1171 19.1243 23.1871 18.0542 23.1873 16.734L22.9873 16.734ZM20.7969 18.9244V18.7244H15.5391V18.9244V19.1244H20.7969V18.9244ZM15.5391 18.9244V18.7244C15.4438 18.7244 15.3477 18.714 15.2469 18.6992L15.2178 18.8971L15.1887 19.095C15.2978 19.111 15.4158 19.1244 15.5391 19.1244V18.9244ZM15.2178 18.8971L15.1901 18.699C15.0839 18.7139 14.9826 18.7244 14.8818 18.7244L14.8818 18.9244L14.8819 19.1244C15.0095 19.1244 15.1317 19.1111 15.2455 19.0952L15.2178 18.8971ZM14.8818 18.9244V18.7244C13.6614 18.7244 12.6717 17.7348 12.6717 16.5143H12.4717H12.2717C12.2717 17.9557 13.4405 19.1244 14.8818 19.1244V18.9244ZM12.4717 16.5143L12.6717 16.5143C12.6719 15.2941 13.6614 14.3051 14.8818 14.3051V14.1051V13.9051C13.4407 13.9051 12.2719 15.073 12.2717 16.5143L12.4717 16.5143ZM14.8818 14.1051L14.8818 14.3051C15.1102 14.3051 15.33 14.3396 15.5365 14.4036L15.5957 14.2125L15.6549 14.0215C15.4103 13.9457 15.1506 13.9051 14.8819 13.9051L14.8818 14.1051ZM15.5957 14.2125L15.7914 14.1712C15.7571 14.0087 15.7391 13.8399 15.7391 13.6666H15.5391H15.3391C15.3391 13.8677 15.36 14.0642 15.4 14.2539L15.5957 14.2125ZM15.5391 13.6666L15.7391 13.6666C15.7391 12.3252 16.8265 11.2377 18.168 11.2377V11.0377V10.8377C16.6056 10.8377 15.3391 12.1043 15.3391 13.6666L15.5391 13.6666Z" fill="#463B34"/>
<path d="M38.8209 15.3396L39.4503 13.6388L41.1511 13.0094L39.4503 12.38L38.8209 10.6792L38.1915 12.38L36.4907 13.0094L38.1915 13.6388L38.8209 15.3396Z" fill="white" stroke="#463B34" stroke-width="0.4"/>
<path d="M44.5568 22.5094L45.1861 20.8086L46.8869 20.1792L45.1861 19.5498L44.5568 17.849L43.9274 19.5498L42.2266 20.1792L43.9274 20.8086L44.5568 22.5094Z" fill="white" stroke="#463B34" stroke-width="0.4"/>
<path d="M29.4502 34.4979C33.4269 34.4979 37.0362 35.0816 39.6582 36.0321C40.9682 36.507 42.0425 37.0774 42.793 37.7206C43.5428 38.3633 43.9893 39.0982 43.9893 39.8964C43.9892 40.6944 43.5427 41.4286 42.793 42.0712C42.0425 42.7144 40.9682 43.2847 39.6582 43.7596C37.0362 44.7101 33.4269 45.2948 29.4502 45.2948C25.4734 45.2948 21.8642 44.7101 19.2422 43.7596C17.9321 43.2847 16.858 42.7144 16.1074 42.0712C15.3576 41.4285 14.9102 40.6945 14.9102 39.8964C14.9102 39.0982 15.3576 38.3633 16.1074 37.7206C16.858 37.0775 17.9323 36.507 19.2422 36.0321C21.8642 35.0817 25.4735 34.4979 29.4502 34.4979Z" fill="#3F2410" stroke="black" stroke-width="0.4"/>
<mask id="path-10-outside-2_308_12" maskUnits="userSpaceOnUse" x="18.4121" y="27.2454" width="22" height="17" fill="black">
<rect fill="white" x="18.4121" y="27.2454" width="22" height="17"/>
<path d="M29.6289 28.2454C35.1274 28.2454 39.6093 29.389 39.834 30.8215L39.9062 30.8372L38.2881 38.2981L38.2861 38.2971C37.6649 41.1317 34.1887 43.302 29.9932 43.302C26.1795 43.3019 22.9614 41.5083 21.9404 39.053L21.9258 39.0579L21.8672 38.8713C21.8215 38.7468 21.7833 38.6201 21.749 38.4924L19.5293 31.3645L19.542 31.3606C19.4575 31.2214 19.4121 31.0793 19.4121 30.9338C19.4125 29.449 23.9868 28.2454 29.6289 28.2454Z"/>
</mask>
<path d="M29.6289 28.2454C35.1274 28.2454 39.6093 29.389 39.834 30.8215L39.9062 30.8372L38.2881 38.2981L38.2861 38.2971C37.6649 41.1317 34.1887 43.302 29.9932 43.302C26.1795 43.3019 22.9614 41.5083 21.9404 39.053L21.9258 39.0579L21.8672 38.8713C21.8215 38.7468 21.7833 38.6201 21.749 38.4924L19.5293 31.3645L19.542 31.3606C19.4575 31.2214 19.4121 31.0793 19.4121 30.9338C19.4125 29.449 23.9868 28.2454 29.6289 28.2454Z" fill="#6F4E37"/>
<path d="M29.6289 28.2454L29.6289 27.8454H29.6289V28.2454ZM39.834 30.8215L39.4388 30.8835L39.4813 31.1545L39.7495 31.2125L39.834 30.8215ZM39.9062 30.8372L40.2972 30.9219L40.382 30.5308L39.9908 30.4462L39.9062 30.8372ZM38.2881 38.2981L38.1092 38.6559L38.5698 38.8862L38.679 38.3829L38.2881 38.2981ZM38.2861 38.2971L38.465 37.9393L38.0054 37.7095L37.8954 38.2115L38.2861 38.2971ZM29.9932 43.302L29.9932 43.702H29.9932V43.302ZM21.9404 39.053L22.3098 38.8994L22.1669 38.5558L21.8139 38.6735L21.9404 39.053ZM21.9258 39.0579L21.5442 39.1777L21.6661 39.566L22.0523 39.4373L21.9258 39.0579ZM21.8672 38.8713L22.2488 38.7515L22.246 38.7425L22.2427 38.7337L21.8672 38.8713ZM21.749 38.4924L22.1354 38.3888L22.1333 38.3811L22.1309 38.3735L21.749 38.4924ZM19.5293 31.3645L19.4117 30.9822L19.0281 31.1002L19.1474 31.4834L19.5293 31.3645ZM19.542 31.3606L19.6596 31.7429L20.1503 31.5919L19.8839 31.153L19.542 31.3606ZM19.4121 30.9338L19.0121 30.9337V30.9338H19.4121ZM29.6289 28.2454L29.6289 28.6454C32.3543 28.6454 34.815 28.9292 36.6109 29.384C37.5111 29.612 38.2253 29.8783 38.7187 30.1616C39.2338 30.4573 39.4124 30.7151 39.4388 30.8835L39.834 30.8215L40.2292 30.7596C40.1432 30.2117 39.6773 29.7894 39.117 29.4678C38.5351 29.1337 37.7431 28.8455 36.8073 28.6085C34.9315 28.1334 32.402 27.8454 29.6289 27.8454L29.6289 28.2454ZM39.834 30.8215L39.7495 31.2125L39.8217 31.2281L39.9062 30.8372L39.9908 30.4462L39.9185 30.4306L39.834 30.8215ZM39.9062 30.8372L39.5153 30.7524L37.8972 38.2133L38.2881 38.2981L38.679 38.3829L40.2972 30.9219L39.9062 30.8372ZM38.2881 38.2981L38.467 37.9403L38.465 37.9393L38.2861 38.2971L38.1072 38.6549L38.1092 38.6559L38.2881 38.2981ZM38.2861 38.2971L37.8954 38.2115C37.6143 39.4944 36.6772 40.6642 35.2718 41.521C33.869 42.3762 32.0244 42.902 29.9932 42.902V43.302V43.702C32.1575 43.702 34.1487 43.1426 35.6882 42.2041C37.2251 41.2671 38.3368 39.9345 38.6769 38.3827L38.2861 38.2971ZM29.9932 43.302L29.9932 42.902C26.2751 42.9019 23.2468 41.1527 22.3098 38.8994L21.9404 39.053L21.5711 39.2066C22.6761 41.8638 26.084 43.7019 29.9932 43.702L29.9932 43.302ZM21.9404 39.053L21.8139 38.6735L21.7993 38.6784L21.9258 39.0579L22.0523 39.4373L22.0669 39.4325L21.9404 39.053ZM21.9258 39.0579L22.3074 38.938L22.2488 38.7515L21.8672 38.8713L21.4856 38.9912L21.5442 39.1777L21.9258 39.0579ZM21.8672 38.8713L22.2427 38.7337C22.2023 38.6234 22.1675 38.5086 22.1354 38.3888L21.749 38.4924L21.3627 38.5961C21.399 38.7315 21.4407 38.8701 21.4916 39.009L21.8672 38.8713ZM21.749 38.4924L22.1309 38.3735L19.9112 31.2456L19.5293 31.3645L19.1474 31.4834L21.3671 38.6114L21.749 38.4924ZM19.5293 31.3645L19.6469 31.7468L19.6596 31.7429L19.542 31.3606L19.4244 30.9783L19.4117 30.9822L19.5293 31.3645ZM19.542 31.3606L19.8839 31.153C19.8296 31.0635 19.8121 30.9923 19.8121 30.9338H19.4121H19.0121C19.0121 31.1663 19.0854 31.3793 19.2001 31.5682L19.542 31.3606ZM19.4121 30.9338L19.8121 30.9339C19.8122 30.7814 19.9364 30.5319 20.4265 30.227C20.8953 29.9354 21.6002 29.6582 22.5067 29.4196C24.3137 28.9441 26.832 28.6454 29.6289 28.6454V28.2454V27.8454C26.7837 27.8454 24.1938 28.1484 22.3031 28.646C21.3607 28.8939 20.5693 29.196 20.004 29.5477C19.4599 29.8861 19.0123 30.3438 19.0121 30.9337L19.4121 30.9338Z" fill="black" mask="url(#path-10-outside-2_308_12)"/>
<path d="M29.6792 28.087C32.5381 28.0871 35.1193 28.3871 36.98 28.8683C37.9118 29.1093 38.6517 29.3924 39.1538 29.6993C39.6673 30.0133 39.8754 30.3152 39.8755 30.5753C39.8755 30.8355 39.6674 31.1373 39.1538 31.4513C38.6517 31.7583 37.9118 32.0423 36.98 32.2833C35.1193 32.7645 32.538 33.0646 29.6792 33.0646C26.8202 33.0646 24.2382 32.7645 22.3774 32.2833C21.4457 32.0423 20.7056 31.7583 20.2036 31.4513C19.6903 31.1373 19.4829 30.8354 19.4829 30.5753C19.483 30.3152 19.6903 30.0133 20.2036 29.6993C20.7056 29.3924 21.4458 29.1093 22.3774 28.8683C24.2382 28.3871 26.8202 28.087 29.6792 28.087Z" fill="#A07E66" stroke="black" stroke-width="0.4"/>
<mask id="path-13-outside-3_308_12" maskUnits="userSpaceOnUse" x="25.7363" y="19.7925" width="7" height="10" fill="black">
<rect fill="white" x="25.7363" y="19.7925" width="7" height="10"/>
<path d="M31.6015 22.3306L31.6103 22.3579C31.7229 22.6958 31.7803 23.0496 31.7803 23.4058C31.7802 23.7501 31.6441 24.0805 31.4013 24.3247L31.376 24.3491C31.03 24.8026 30.3919 25.3699 29.6299 25.9155C29.2406 26.3372 28.9276 26.6783 28.6758 26.9517C28.5983 27.0704 28.5002 27.203 28.375 27.3491C28.3477 27.4115 28.3169 27.4695 28.2861 27.5249L28.0937 27.9116C28.0423 28.0144 27.9982 28.1209 27.9619 28.23L27.9502 28.2642C27.8752 28.4893 27.8369 28.7251 27.8369 28.9624L27.4238 28.687C27.3409 28.6317 27.2638 28.568 27.1933 28.4976L27.1787 28.4829C27.0225 28.3267 26.9048 28.1358 26.8349 27.9263C26.7922 27.7981 26.7687 27.6646 26.7637 27.5298C26.7121 27.2864 26.7323 26.9943 26.834 26.7007C26.9292 26.2011 27.6792 25.351 28.7402 24.5913C29.137 24.3072 29.5315 24.0682 29.8965 23.8843L30.0303 23.7954C30.2405 23.6552 30.4365 23.4946 30.6152 23.3159L30.7178 23.2134C30.8282 23.1029 30.928 22.982 31.0146 22.8521C31.1655 22.6257 31.2768 22.3748 31.3428 22.1108L31.4219 21.7925L31.6015 22.3306Z"/>
</mask>
<path d="M31.6015 22.3306L31.6103 22.3579C31.7229 22.6958 31.7803 23.0496 31.7803 23.4058C31.7802 23.7501 31.6441 24.0805 31.4013 24.3247L31.376 24.3491C31.03 24.8026 30.3919 25.3699 29.6299 25.9155C29.2406 26.3372 28.9276 26.6783 28.6758 26.9517C28.5983 27.0704 28.5002 27.203 28.375 27.3491C28.3477 27.4115 28.3169 27.4695 28.2861 27.5249L28.0937 27.9116C28.0423 28.0144 27.9982 28.1209 27.9619 28.23L27.9502 28.2642C27.8752 28.4893 27.8369 28.7251 27.8369 28.9624L27.4238 28.687C27.3409 28.6317 27.2638 28.568 27.1933 28.4976L27.1787 28.4829C27.0225 28.3267 26.9048 28.1358 26.8349 27.9263C26.7922 27.7981 26.7687 27.6646 26.7637 27.5298C26.7121 27.2864 26.7323 26.9943 26.834 26.7007C26.9292 26.2011 27.6792 25.351 28.7402 24.5913C29.137 24.3072 29.5315 24.0682 29.8965 23.8843L30.0303 23.7954C30.2405 23.6552 30.4365 23.4946 30.6152 23.3159L30.7178 23.2134C30.8282 23.1029 30.928 22.982 31.0146 22.8521C31.1655 22.6257 31.2768 22.3748 31.3428 22.1108L31.4219 21.7925L31.6015 22.3306Z" fill="#D9C6B9"/>
<path d="M31.6015 22.3306L31.9824 22.2082L31.9809 22.2039L31.6015 22.3306ZM31.6103 22.3579L31.2295 22.4803L31.2309 22.4844L31.6103 22.3579ZM31.7803 23.4058L32.1803 23.4058V23.4058L31.7803 23.4058ZM31.4013 24.3247L31.6787 24.6131L31.685 24.6068L31.4013 24.3247ZM31.376 24.3491L31.0987 24.0608L31.0766 24.0821L31.0579 24.1065L31.376 24.3491ZM29.6299 25.9155L29.397 25.5903L29.3637 25.6141L29.3359 25.6442L29.6299 25.9155ZM28.6758 26.9517L28.3816 26.6806L28.359 26.7051L28.3408 26.7331L28.6758 26.9517ZM28.375 27.3491L28.0713 27.0888L28.0324 27.1342L28.0085 27.1889L28.375 27.3491ZM28.2861 27.5249L27.9365 27.3305L27.9321 27.3385L27.928 27.3467L28.2861 27.5249ZM28.0937 27.9116L28.4515 28.0905L28.4519 28.0898L28.0937 27.9116ZM27.9619 28.23L28.3403 28.3597L28.3414 28.3565L27.9619 28.23ZM27.9502 28.2642L27.5718 28.1344L27.5707 28.1378L27.9502 28.2642ZM27.8369 28.9624L27.615 29.2952L28.2369 29.7098L28.2369 28.9624L27.8369 28.9624ZM27.4238 28.687L27.6457 28.3542L27.6457 28.3542L27.4238 28.687ZM27.1933 28.4976L26.9105 28.7804H26.9105L27.1933 28.4976ZM27.1787 28.4829L27.4615 28.2001L27.1787 28.4829ZM26.8349 27.9263L26.4554 28.0527L26.4555 28.0528L26.8349 27.9263ZM26.7637 27.5298L27.1634 27.5148L27.1621 27.4805L27.155 27.447L26.7637 27.5298ZM26.834 26.7007L27.212 26.8315L27.2215 26.8041L27.2269 26.7756L26.834 26.7007ZM28.7402 24.5913L28.5074 24.2661L28.5073 24.2661L28.7402 24.5913ZM29.8965 23.8843L30.0765 24.2415L30.0978 24.2307L30.1178 24.2175L29.8965 23.8843ZM30.0303 23.7954L30.2516 24.1286L30.2522 24.1282L30.0303 23.7954ZM30.6152 23.3159L30.3324 23.0331L30.3324 23.0331L30.6152 23.3159ZM30.7178 23.2134L31.0006 23.4962V23.4962L30.7178 23.2134ZM31.0146 22.8521L31.3474 23.074L31.3474 23.0739L31.0146 22.8521ZM31.3428 22.1108L31.7308 22.2079L31.7309 22.2073L31.3428 22.1108ZM31.4219 21.7925L31.8013 21.6658L31.3654 20.3607L31.0337 21.696L31.4219 21.7925ZM31.6015 22.3306L31.2207 22.453L31.2295 22.4803L31.6103 22.3579L31.9911 22.2355L31.9824 22.2082L31.6015 22.3306ZM31.6103 22.3579L31.2309 22.4844C31.3298 22.7814 31.3803 23.0925 31.3803 23.4058L31.7803 23.4058L32.1803 23.4058C32.1803 23.0067 32.116 22.6101 31.9898 22.2314L31.6103 22.3579ZM31.7803 23.4058L31.3803 23.4057C31.3802 23.6446 31.2858 23.8736 31.1177 24.0427L31.4013 24.3247L31.685 24.6068C32.0024 24.2875 32.1802 23.8556 32.1803 23.4058L31.7803 23.4058ZM31.4013 24.3247L31.1241 24.0364L31.0987 24.0608L31.376 24.3491L31.6532 24.6375L31.6786 24.613L31.4013 24.3247ZM31.376 24.3491L31.0579 24.1065C30.7475 24.5134 30.1466 25.0535 29.397 25.5903L29.6299 25.9155L29.8627 26.2408C30.6371 25.6863 31.3125 25.0917 31.694 24.5918L31.376 24.3491ZM29.6299 25.9155L29.3359 25.6442C28.9467 26.0658 28.6325 26.4083 28.3816 26.6806L28.6758 26.9517L28.9699 27.2227C29.2227 26.9484 29.5345 26.6086 29.9238 26.1868L29.6299 25.9155ZM28.6758 26.9517L28.3408 26.7331C28.2733 26.8365 28.1858 26.9552 28.0713 27.0888L28.375 27.3491L28.6787 27.6094C28.8147 27.4508 28.9233 27.3043 29.0108 27.1702L28.6758 26.9517ZM28.375 27.3491L28.0085 27.1889C27.9887 27.234 27.965 27.2793 27.9365 27.3305L28.2861 27.5249L28.6357 27.7193C28.6688 27.6598 28.7067 27.5889 28.7415 27.5094L28.375 27.3491ZM28.2861 27.5249L27.928 27.3467L27.7356 27.7335L28.0937 27.9116L28.4519 28.0898L28.6442 27.7031L28.2861 27.5249ZM28.0937 27.9116L27.736 27.7327C27.6761 27.8525 27.6247 27.9766 27.5824 28.1035L27.9619 28.23L28.3414 28.3565C28.3718 28.2653 28.4086 28.1763 28.4515 28.0905L28.0937 27.9116ZM27.9619 28.23L27.5835 28.1003L27.5718 28.1344L27.9502 28.2642L28.3286 28.3939L28.3403 28.3597L27.9619 28.23ZM27.9502 28.2642L27.5707 28.1378C27.4821 28.4036 27.4369 28.6821 27.4369 28.9624L27.8369 28.9624L28.2369 28.9624C28.2369 28.7681 28.2683 28.575 28.3297 28.3906L27.9502 28.2642ZM27.8369 28.9624L28.0588 28.6296L27.6457 28.3542L27.4238 28.687L27.2019 29.0198L27.615 29.2952L27.8369 28.9624ZM27.4238 28.687L27.6457 28.3542C27.5856 28.3141 27.5288 28.2673 27.4762 28.2147L27.1933 28.4976L26.9105 28.7804C26.9988 28.8687 27.0962 28.9494 27.2019 29.0198L27.4238 28.687ZM27.1933 28.4976L27.4762 28.2147L27.4615 28.2001L27.1787 28.4829L26.8958 28.7658L26.9105 28.7804L27.1933 28.4976ZM27.1787 28.4829L27.4615 28.2001C27.3494 28.088 27.2647 27.9507 27.2144 27.7998L26.8349 27.9263L26.4555 28.0528C26.5449 28.321 26.6955 28.5654 26.8958 28.7658L27.1787 28.4829ZM26.8349 27.9263L27.2144 27.7998C27.1841 27.7089 27.167 27.6131 27.1634 27.5148L26.7637 27.5298L26.3639 27.5447C26.3703 27.7162 26.4003 27.8873 26.4554 28.0527L26.8349 27.9263ZM26.7637 27.5298L27.155 27.447C27.1205 27.2842 27.1307 27.0663 27.212 26.8315L26.834 26.7007L26.456 26.5699C26.334 26.9223 26.3037 27.2886 26.3723 27.6126L26.7637 27.5298ZM26.834 26.7007L27.2269 26.7756C27.2527 26.6401 27.3982 26.3721 27.7226 26.0107C28.032 25.6659 28.4621 25.2824 28.9731 24.9165L28.7402 24.5913L28.5073 24.2661C27.9573 24.6599 27.4818 25.0813 27.1272 25.4764C26.7875 25.8548 26.5104 26.2617 26.441 26.6258L26.834 26.7007ZM28.7402 24.5913L28.9731 24.9165C29.3547 24.6433 29.7316 24.4152 30.0765 24.2415L29.8965 23.8843L29.7165 23.5271C29.3313 23.7211 28.9192 23.9712 28.5074 24.2661L28.7402 24.5913ZM29.8965 23.8843L30.1178 24.2175L30.2516 24.1286L30.0303 23.7954L29.8089 23.4622L29.6751 23.5511L29.8965 23.8843ZM30.0303 23.7954L30.2522 24.1282C30.4843 23.9734 30.7007 23.7962 30.8981 23.5988L30.6152 23.3159L30.3324 23.0331C30.1723 23.1931 29.9968 23.337 29.8083 23.4626L30.0303 23.7954ZM30.6152 23.3159L30.8981 23.5988L31.0006 23.4962L30.7178 23.2134L30.4349 22.9305L30.3324 23.0331L30.6152 23.3159ZM30.7178 23.2134L31.0006 23.4962C31.1291 23.3677 31.2457 23.2265 31.3474 23.074L31.0146 22.8521L30.6818 22.6301C30.6102 22.7375 30.5273 22.8381 30.4349 22.9305L30.7178 23.2134ZM31.0146 22.8521L31.3474 23.0739C31.5237 22.8096 31.6536 22.5164 31.7308 22.2079L31.3428 22.1108L30.9547 22.0138C30.8999 22.2331 30.8074 22.4418 30.6818 22.6302L31.0146 22.8521ZM31.3428 22.1108L31.7309 22.2073L31.8101 21.8889L31.4219 21.7925L31.0337 21.696L30.9546 22.0144L31.3428 22.1108ZM31.4219 21.7925L31.0425 21.9192L31.2221 22.4573L31.6015 22.3306L31.9809 22.2039L31.8013 21.6658L31.4219 21.7925Z" fill="black" mask="url(#path-13-outside-3_308_12)"/>
<mask id="path-15-outside-4_308_12" maskUnits="userSpaceOnUse" x="27.0161" y="28.1415" width="7" height="4" fill="black">
<rect fill="white" x="27.0161" y="28.1415" width="7" height="4"/>
<path d="M28.0161 29.1415C28.4906 29.3787 29.0024 29.5337 29.5288 29.5995L30.1675 29.6796L31.4673 29.8231C31.488 29.8238 31.5089 29.8229 31.5298 29.8241C31.754 29.8365 31.9638 29.8763 32.1489 29.9315C32.2671 29.9436 32.3908 29.9755 32.5112 30.0331C32.9263 30.2315 33.1476 30.634 33.0054 30.9325C32.9255 31.0996 32.7478 31.1958 32.5347 31.2157C32.3262 31.2647 31.9924 31.2568 31.4565 31.1464C31.2806 31.1366 31.1138 31.1091 30.9604 31.0721L30.5376 31.0126C30.1725 30.9604 29.816 30.86 29.4771 30.7147L29.02 30.5194C28.8306 30.4382 28.6579 30.3213 28.5122 30.1757C28.3048 29.9682 28.1576 29.7082 28.0864 29.4237L28.0161 29.1415Z"/>
</mask>
<path d="M28.0161 29.1415C28.4906 29.3787 29.0024 29.5337 29.5288 29.5995L30.1675 29.6796L31.4673 29.8231C31.488 29.8238 31.5089 29.8229 31.5298 29.8241C31.754 29.8365 31.9638 29.8763 32.1489 29.9315C32.2671 29.9436 32.3908 29.9755 32.5112 30.0331C32.9263 30.2315 33.1476 30.634 33.0054 30.9325C32.9255 31.0996 32.7478 31.1958 32.5347 31.2157C32.3262 31.2647 31.9924 31.2568 31.4565 31.1464C31.2806 31.1366 31.1138 31.1091 30.9604 31.0721L30.5376 31.0126C30.1725 30.9604 29.816 30.86 29.4771 30.7147L29.02 30.5194C28.8306 30.4382 28.6579 30.3213 28.5122 30.1757C28.3048 29.9682 28.1576 29.7082 28.0864 29.4237L28.0161 29.1415Z" fill="#C9B2A3"/>
<path d="M28.0161 29.1415L28.195 28.7837L27.418 28.3952L27.628 29.2382L28.0161 29.1415ZM29.5288 29.5995L29.5786 29.2026L29.5784 29.2026L29.5288 29.5995ZM30.1675 29.6796L30.1177 30.0765L30.1236 30.0771L30.1675 29.6796ZM31.4673 29.8231L31.4234 30.2207L31.4384 30.2224L31.4536 30.2229L31.4673 29.8231ZM31.5298 29.8241L31.5519 29.4247L31.5519 29.4247L31.5298 29.8241ZM32.1489 29.9315L32.0346 30.3148L32.0708 30.3256L32.1084 30.3295L32.1489 29.9315ZM32.5112 30.0331L32.6837 29.6722L32.6837 29.6722L32.5112 30.0331ZM33.0054 30.9325L33.3663 31.105L33.3665 31.1045L33.0054 30.9325ZM32.5347 31.2157L32.4974 30.8174L32.47 30.82L32.4432 30.8263L32.5347 31.2157ZM31.4565 31.1464L31.5373 30.7546L31.5083 30.7486L31.4787 30.747L31.4565 31.1464ZM30.9604 31.0721L31.0541 30.6833L31.0353 30.6787L31.0162 30.6761L30.9604 31.0721ZM30.5376 31.0126L30.481 31.4085L30.4818 31.4087L30.5376 31.0126ZM29.4771 30.7147L29.6346 30.3471L29.6342 30.3469L29.4771 30.7147ZM29.02 30.5194L28.8625 30.8871L28.8628 30.8872L29.02 30.5194ZM28.5122 30.1757L28.2293 30.4585L28.2294 30.4585L28.5122 30.1757ZM28.0864 29.4237L27.6983 29.5204L27.6984 29.5208L28.0864 29.4237ZM28.0161 29.1415L27.8372 29.4992C28.3523 29.7568 28.9077 29.925 29.4792 29.9964L29.5288 29.5995L29.5784 29.2026C29.097 29.1424 28.629 29.0007 28.195 28.7837L28.0161 29.1415ZM29.5288 29.5995L29.479 29.9964L30.1177 30.0765L30.1675 29.6796L30.2172 29.2827L29.5786 29.2026L29.5288 29.5995ZM30.1675 29.6796L30.1236 30.0771L31.4234 30.2207L31.4673 29.8231L31.5112 29.4255L30.2114 29.282L30.1675 29.6796ZM31.4673 29.8231L31.4536 30.2229C31.4723 30.2235 31.491 30.2234 31.4981 30.2234C31.5082 30.2235 31.5091 30.2236 31.5077 30.2235L31.5298 29.8241L31.5519 29.4247C31.5296 29.4235 31.5096 29.4235 31.4989 29.4234C31.485 29.4234 31.483 29.4234 31.481 29.4234L31.4673 29.8231ZM31.5298 29.8241L31.5076 30.2235C31.699 30.2341 31.8779 30.2681 32.0346 30.3148L32.1489 29.9315L32.2633 29.5482C32.0498 29.4845 31.8091 29.439 31.5519 29.4247L31.5298 29.8241ZM32.1489 29.9315L32.1084 30.3295C32.1839 30.3372 32.2625 30.3575 32.3387 30.394L32.5112 30.0331L32.6837 29.6722C32.5191 29.5935 32.3504 29.55 32.1895 29.5336L32.1489 29.9315ZM32.5112 30.0331L32.3387 30.394C32.4793 30.4612 32.5719 30.5564 32.6167 30.6379C32.6619 30.7201 32.6459 30.757 32.6442 30.7605L33.0054 30.9325L33.3665 31.1045C33.5071 30.8094 33.4515 30.4959 33.3178 30.2526C33.1838 30.0087 32.9582 29.8034 32.6837 29.6722L32.5112 30.0331ZM33.0054 30.9325L32.6445 30.76C32.6429 30.7632 32.6382 30.7722 32.618 30.784C32.5958 30.7971 32.5564 30.8119 32.4974 30.8174L32.5347 31.2157L32.5719 31.614C32.8731 31.5858 33.2061 31.44 33.3663 31.105L33.0054 30.9325ZM32.5347 31.2157L32.4432 30.8263C32.3219 30.8548 32.0584 30.862 31.5373 30.7546L31.4565 31.1464L31.3758 31.5381C31.9264 31.6517 32.3304 31.6746 32.6261 31.6051L32.5347 31.2157ZM31.4565 31.1464L31.4787 30.747C31.3302 30.7387 31.1874 30.7154 31.0541 30.6833L30.9604 31.0721L30.8668 31.461C31.0402 31.5028 31.2311 31.5345 31.4344 31.5457L31.4565 31.1464ZM30.9604 31.0721L31.0162 30.6761L30.5934 30.6165L30.5376 31.0126L30.4818 31.4087L30.9046 31.4682L30.9604 31.0721ZM30.5376 31.0126L30.5942 30.6166C30.2642 30.5694 29.9416 30.4786 29.6346 30.3471L29.4771 30.7147L29.3195 31.0824C29.6905 31.2414 30.0809 31.3513 30.481 31.4085L30.5376 31.0126ZM29.4771 30.7147L29.6342 30.3469L29.1772 30.1516L29.02 30.5194L28.8628 30.8872L29.3199 31.0825L29.4771 30.7147ZM29.02 30.5194L29.1776 30.1518C29.0349 30.0906 28.9047 30.0025 28.795 29.8928L28.5122 30.1757L28.2294 30.4585C28.4111 30.6402 28.6264 30.7859 28.8625 30.8871L29.02 30.5194ZM28.5122 30.1757L28.7951 29.8929C28.6389 29.7367 28.5281 29.5409 28.4745 29.3266L28.0864 29.4237L27.6984 29.5208C27.7872 29.8756 27.9707 30.1998 28.2293 30.4585L28.5122 30.1757ZM28.0864 29.4237L28.4746 29.327L28.4042 29.0448L28.0161 29.1415L27.628 29.2382L27.6983 29.5204L28.0864 29.4237Z" fill="black" mask="url(#path-15-outside-4_308_12)"/>
<path d="M16.897 33.9597C17.1648 33.7864 17.6442 33.7778 18.3109 34.15C18.9557 34.5101 19.6573 35.1717 20.2348 36.0626C20.8122 36.9535 21.1292 37.8635 21.1945 38.599C21.262 39.3597 21.0585 39.7937 20.7908 39.9674C20.523 40.141 20.0431 40.1501 19.3761 39.7776C18.7313 39.4176 18.0301 38.7566 17.4527 37.8659C16.8752 36.9749 16.5578 36.0643 16.4925 35.3286C16.4249 34.5677 16.6292 34.1333 16.897 33.9597Z" stroke="#6F4E37"/>
<path d="M16.6531 33.6114C17.0932 33.3262 17.7435 33.3752 18.4799 33.7762C19.2085 34.1729 19.975 34.8925 20.5944 35.8481C21.2137 36.8036 21.5576 37.7972 21.6222 38.6243C21.6875 39.4602 21.4666 40.0739 21.0266 40.3591C20.5866 40.6442 19.9362 40.5952 19.1998 40.1943C18.4712 39.7976 17.7055 39.0774 17.0862 38.1219C16.4669 37.1664 16.1222 36.1733 16.0575 35.3462C15.9923 34.5104 16.2132 33.8967 16.6531 33.6114Z" stroke="black" stroke-width="0.4"/>
<path d="M16.9121 34.0092C17.2351 33.7999 17.7515 33.852 18.3766 34.2272C18.9892 34.5949 19.6465 35.2421 20.1935 36.0859C20.7403 36.9297 21.0626 37.794 21.1482 38.5033C21.2354 39.2272 21.0721 39.7198 20.7491 39.9292C20.4262 40.1385 19.9098 40.0864 19.2846 39.7111C18.6721 39.3434 18.0147 38.6963 17.4678 37.8525C16.9209 37.0086 16.5986 36.1443 16.5131 35.435C16.4259 34.7111 16.5892 34.2185 16.9121 34.0092Z" stroke="black" stroke-width="0.4"/>
</svg>
