<svg width="13" height="13" viewBox="0 0 13 13" fill="none" xmlns="http://www.w3.org/2000/svg">
<path d="M11.5104 6.5C11.5104 7.82884 10.9825 9.10326 10.0429 10.0429C9.10327 10.9825 7.82885 11.5104 6.50001 11.5104V12.3229C9.71588 12.3229 12.3229 9.71587 12.3229 6.5H11.5104ZM6.50001 11.5104C5.17116 11.5104 3.89675 10.9825 2.95711 10.0429C2.01748 9.10326 1.48959 7.82884 1.48959 6.5H0.677094C0.677094 9.71587 3.28414 12.3229 6.50001 12.3229V11.5104ZM1.48959 6.5C1.48959 5.17115 2.01748 3.89673 2.95711 2.9571C3.89675 2.01746 5.17116 1.48958 6.50001 1.48958V0.677082C3.28414 0.677082 0.677094 3.28412 0.677094 6.5H1.48959ZM8.39584 7.71875C7.5698 7.71875 6.7776 7.39061 6.1935 6.80651C5.6094 6.22241 5.28126 5.4302 5.28126 4.60417H4.46876C4.46876 5.64569 4.88251 6.64456 5.61898 7.38103C6.35545 8.1175 7.35432 8.53125 8.39584 8.53125V7.71875ZM11.0636 6.21237C10.7864 6.67206 10.3951 7.05231 9.92772 7.31624C9.46031 7.58017 8.93262 7.71882 8.39584 7.71875V8.53125C9.07259 8.53145 9.73791 8.35676 10.3273 8.02412C10.9166 7.69148 11.41 7.21218 11.7596 6.63271L11.0636 6.21237ZM5.28126 4.60417C5.28118 4.06739 5.41984 3.5397 5.68377 3.07229C5.9477 2.60488 6.32795 2.21362 6.78763 1.93646L6.3673 1.24096C5.78791 1.59049 5.30866 2.08379 4.97602 2.67305C4.64339 3.2623 4.46865 3.92751 4.46876 4.60417H5.28126ZM6.50001 1.48958C6.47279 1.48906 6.44594 1.48314 6.42102 1.47217C6.3961 1.4612 6.37361 1.44539 6.35484 1.42567C6.33201 1.40273 6.31654 1.37349 6.31043 1.34171C6.30826 1.32492 6.30934 1.27617 6.3673 1.24096L6.78763 1.93646C7.06009 1.77179 7.14784 1.47008 7.11588 1.23283C7.0823 0.986374 6.88838 0.677082 6.50001 0.677082V1.48958ZM11.7596 6.63271C11.7238 6.69066 11.6751 6.69175 11.6583 6.68958C11.6265 6.68347 11.5973 6.668 11.5743 6.64516C11.5546 6.6264 11.5388 6.6039 11.5278 6.57899C11.5169 6.55407 11.5109 6.52722 11.5104 6.5H12.3229C12.3229 6.11162 12.0136 5.91771 11.7672 5.88412C11.5299 5.85216 11.2282 5.93991 11.0636 6.21237L11.7596 6.63271Z" fill="#6F4E37"/>
</svg>
