<svg width="51" height="50" viewBox="0 0 51 50" fill="none" xmlns="http://www.w3.org/2000/svg">
<path d="M26.1455 0.603027C39.6543 0.937687 50.5 11.7468 50.5 25.0317L50.4922 25.6626C50.1499 38.867 39.0913 49.4683 25.5 49.4683L24.8545 49.4604C11.5602 49.1311 0.844697 38.6573 0.507812 25.6626L0.5 25.0317C0.500001 11.5358 11.6929 0.595215 25.5 0.595215L26.1455 0.603027ZM25.5 0.995605C11.9052 0.995605 0.900392 11.7653 0.900391 25.0317C0.900391 38.2982 11.9052 49.0679 25.5 49.0679C39.0948 49.0679 50.0996 38.2982 50.0996 25.0317C50.0996 11.7653 39.0948 0.995606 25.5 0.995605ZM34.5938 24.0454C35.3586 23.5493 36.3698 24.0985 36.3701 25.0103V27.6216C36.3701 27.9877 36.1955 28.3327 35.9004 28.5493L31.4131 31.8384C30.5556 32.467 29.6216 32.9409 28.6504 33.2632L34.8379 39.311C35.2914 39.7549 35.2914 40.4746 34.8379 40.9185L33.2686 42.4526C32.8146 42.8964 32.0783 42.896 31.624 42.4526L25.5234 36.4897L19.4834 42.394C19.0294 42.8378 18.2931 42.8374 17.8389 42.394L16.2686 40.8599C15.8147 40.416 15.8148 39.6964 16.2686 39.2524L22.3828 33.2749C21.3997 32.9525 20.4551 32.4741 19.5879 31.8384L15.1006 28.5493C14.8052 28.3327 14.6309 27.9879 14.6309 27.6216V25.0933C14.6312 24.1648 15.6751 23.6188 16.4375 24.1489L19.6084 26.355C19.6715 26.3989 19.739 26.4359 19.8096 26.4663L21.4092 27.1567C24.0131 28.2796 26.9716 28.2441 29.5479 27.0591L30.8594 26.4556C30.9096 26.4324 30.9585 26.4056 31.0049 26.3755L34.5938 24.0454ZM25.5 6.95557C30.5022 6.95582 34.5573 10.9197 34.5576 15.8091C34.5576 20.6988 30.5024 24.6633 25.5 24.6636C20.4976 24.6634 16.4414 20.6988 16.4414 15.8091C16.4417 10.9196 20.4978 6.95576 25.5 6.95557ZM25.5 11.3823C22.999 11.3825 20.9709 13.3645 20.9707 15.8091C20.9707 18.2539 22.9989 20.2356 25.5 20.2358C28.0011 20.2356 30.0283 18.2539 30.0283 15.8091C30.0281 13.3645 28.001 11.3825 25.5 11.3823Z" fill="white"/>
</svg>
