<svg width="43" height="43" viewBox="0 0 43 43" fill="none" xmlns="http://www.w3.org/2000/svg">
<path d="M1.7915 1.79163H19.7082V19.7083H1.7915V1.79163ZM5.37484 5.37496V16.125H16.1248V5.37496H5.37484Z" fill="white"/>
<path fill-rule="evenodd" clip-rule="evenodd" d="M8.9585 8.95837H12.5418V12.5417H8.9585V8.95837Z" fill="white"/>
<path d="M23.2915 1.79163H41.2082V19.7083H23.2915V1.79163ZM26.8748 5.37496V16.125H37.6248V5.37496H26.8748Z" fill="white"/>
<path fill-rule="evenodd" clip-rule="evenodd" d="M30.4585 8.95837H34.0418V12.5417H30.4585V8.95837Z" fill="white"/>
<path d="M1.7915 23.2916H19.7082V41.2083H1.7915V23.2916ZM5.37484 26.875V37.625H16.1248V26.875H5.37484Z" fill="white"/>
<path fill-rule="evenodd" clip-rule="evenodd" d="M8.9585 30.4584H12.5418V34.0417H8.9585V30.4584Z" fill="white"/>
<path d="M41.2082 34.0416H34.0415V41.2083H23.2915V23.2916V34.0416H26.8748V37.625H30.4582V26.875H26.8748V23.2916H25.0832H30.4582V26.875H34.0415V30.4583H37.6248V23.2916H41.2082V34.0416ZM41.2082 37.625V41.2083H37.6248V37.625H41.2082Z" fill="white"/>
</svg>
