<svg width="19" height="19" viewBox="0 0 19 19" fill="none" xmlns="http://www.w3.org/2000/svg">
<path fill-rule="evenodd" clip-rule="evenodd" d="M9.65029 2.84134C9.58916 2.81028 9.51997 2.79277 9.4467 2.79277C9.38493 2.79277 9.32606 2.80521 9.27248 2.82773L7.59795 1.1532C7.42219 0.977444 7.13723 0.977444 6.96147 1.1532C6.78571 1.32896 6.78571 1.61392 6.96147 1.78968L8.71063 3.53884C8.79031 3.61852 8.89243 3.66208 8.99664 3.66951V8.76381L4.7005 6.28343C4.73009 6.2004 4.73564 6.10784 4.7111 6.01625L4.07086 3.62685C4.00653 3.38676 3.75975 3.24428 3.51966 3.30861C3.27957 3.37294 3.13709 3.61973 3.20142 3.85982L3.77447 5.99846C3.70444 6.03672 3.6437 6.09409 3.60089 6.16825C3.56233 6.23503 3.54283 6.30759 3.54071 6.37963L1.45082 6.93961C1.21073 7.00394 1.06825 7.25073 1.13258 7.49082C1.19691 7.73091 1.44369 7.87339 1.68378 7.80906L4.07319 7.16882C4.14469 7.14966 4.20753 7.11432 4.25883 7.06779L8.52527 9.53102L4.1873 12.0355C4.1297 11.9358 4.03408 11.8581 3.91406 11.8259L1.52466 11.1857C1.28457 11.1214 1.03779 11.2638 0.973455 11.5039C0.909123 11.744 1.0516 11.9908 1.29169 12.0551L3.5726 12.6663C3.57506 12.7376 3.59455 12.8093 3.63271 12.8754C3.66632 12.9336 3.71099 12.9815 3.76252 13.0179L3.16334 15.2541C3.09901 15.4942 3.24149 15.7409 3.48158 15.8053C3.72167 15.8696 3.96846 15.7271 4.03279 15.487L4.67303 13.0976C4.7 12.997 4.69062 12.8951 4.65293 12.8061L8.99664 10.2982V15.352C8.8927 15.3596 8.79088 15.4031 8.7114 15.4826L6.96223 17.2318C6.78648 17.4075 6.78648 17.6925 6.96223 17.8683C7.13799 18.044 7.42295 18.044 7.59871 17.8683L9.22871 16.2383C9.29329 16.2741 9.36761 16.2945 9.4467 16.2945C9.54843 16.2945 9.64228 16.2607 9.71765 16.2038L11.3606 17.8468C11.5364 18.0226 11.8214 18.0226 11.9971 17.8468C12.1729 17.6711 12.1729 17.3861 11.9971 17.2103L10.248 15.4612C10.1517 15.3649 10.0227 15.3214 9.89676 15.3306V10.3228L14.2242 12.8213C14.1859 12.9108 14.1763 13.0133 14.2034 13.1145L14.8436 15.5039C14.908 15.744 15.1548 15.8865 15.3948 15.8222C15.6349 15.7579 15.7774 15.5111 15.7131 15.271L15.1273 13.0849C15.1943 13.0467 15.2524 12.9907 15.2937 12.9191C15.3415 12.8364 15.36 12.7448 15.3525 12.6563L17.5682 12.0626C17.8082 11.9983 17.9507 11.7515 17.8864 11.5114C17.8221 11.2713 17.5753 11.1289 17.3352 11.1932L14.9458 11.8334C14.8264 11.8654 14.7312 11.9425 14.6735 12.0414L10.3255 9.53102L14.7709 6.96448C14.8285 7.06421 14.9241 7.14197 15.0441 7.17414L17.4335 7.81437C17.6736 7.87871 17.9204 7.73623 17.9847 7.49614C18.0491 7.25605 17.9066 7.00926 17.6665 6.94493L15.3856 6.33378C15.3832 6.26246 15.3637 6.19068 15.3255 6.12456C15.2919 6.06633 15.2472 6.01845 15.1957 5.98204L15.7948 3.74599C15.8592 3.5059 15.7167 3.25912 15.4766 3.19479C15.2365 3.13046 14.9897 3.27294 14.9254 3.51303L14.2852 5.90243C14.2582 6.00307 14.2676 6.10489 14.3052 6.19395L9.89676 8.73919V3.64807C10.0224 3.65703 10.1511 3.61347 10.2472 3.5174L11.9964 1.76823C12.1721 1.59248 12.1721 1.30752 11.9964 1.13176C11.8206 0.955999 11.5356 0.955999 11.3599 1.13176L9.65029 2.84134Z" fill="#6F4E37"/>
<path d="M9.65029 2.84134L9.5597 3.01965L9.68909 3.08539L9.79172 2.98277L9.65029 2.84134ZM9.27248 2.82773L9.13106 2.96915L9.22607 3.06417L9.34996 3.01211L9.27248 2.82773ZM7.59795 1.1532L7.45652 1.29462L7.45652 1.29462L7.59795 1.1532ZM6.96147 1.1532L6.82005 1.01178L6.82005 1.01178L6.96147 1.1532ZM6.96147 1.78968L7.10289 1.64826L7.10289 1.64826L6.96147 1.78968ZM8.71063 3.53884L8.85206 3.39742L8.85206 3.39742L8.71063 3.53884ZM8.99664 3.66951H9.19664V3.48328L9.01088 3.47002L8.99664 3.66951ZM8.99664 8.76381L8.89664 8.93701L9.19664 9.11022V8.76381H8.99664ZM4.7005 6.28343L4.5121 6.2163L4.45617 6.3733L4.6005 6.45663L4.7005 6.28343ZM4.7111 6.01625L4.51792 6.06802L4.51792 6.06802L4.7111 6.01625ZM4.07086 3.62685L4.26405 3.57509L4.26405 3.57509L4.07086 3.62685ZM3.51966 3.30861L3.57142 3.5018L3.57142 3.5018L3.51966 3.30861ZM3.20142 3.85982L3.00823 3.91158L3.20142 3.85982ZM3.77447 5.99846L3.87036 6.17398L4.00835 6.09859L3.96765 5.9467L3.77447 5.99846ZM3.60089 6.16825L3.42768 6.06825L3.42768 6.06825L3.60089 6.16825ZM3.54071 6.37963L3.59248 6.57281L3.73624 6.53429L3.74063 6.38552L3.54071 6.37963ZM1.45082 6.93961L1.39905 6.74643L1.39905 6.74643L1.45082 6.93961ZM1.13258 7.49082L0.939393 7.54258L0.939393 7.54258L1.13258 7.49082ZM1.68378 7.80906L1.73555 8.00224L1.73555 8.00224L1.68378 7.80906ZM4.07319 7.16882L4.12495 7.362L4.12495 7.362L4.07319 7.16882ZM4.25883 7.06779L4.35883 6.89459L4.23252 6.82166L4.12448 6.91964L4.25883 7.06779ZM8.52527 9.53102L8.62527 9.70422L8.92527 9.53102L8.62527 9.35781L8.52527 9.53102ZM4.1873 12.0355L4.01411 12.1356L4.11413 12.3087L4.2873 12.2088L4.1873 12.0355ZM3.91406 11.8259L3.8623 12.0191L3.8623 12.0191L3.91406 11.8259ZM1.52466 11.1857L1.4729 11.3789L1.4729 11.3789L1.52466 11.1857ZM0.973455 11.5039L1.16664 11.5557L1.16664 11.5557L0.973455 11.5039ZM1.29169 12.0551L1.23993 12.2483L1.23993 12.2483L1.29169 12.0551ZM3.5726 12.6663L3.77248 12.6594L3.76738 12.5114L3.62437 12.4731L3.5726 12.6663ZM3.63271 12.8754L3.4595 12.9754L3.4595 12.9754L3.63271 12.8754ZM3.76252 13.0179L3.9557 13.0697L3.99179 12.935L3.87791 12.8546L3.76252 13.0179ZM3.16334 15.2541L2.97016 15.2023L2.97016 15.2023L3.16334 15.2541ZM4.03279 15.487L4.22597 15.5388L4.22597 15.5388L4.03279 15.487ZM4.67303 13.0976L4.86621 13.1494L4.86621 13.1494L4.67303 13.0976ZM4.65293 12.8061L4.55293 12.6329L4.39988 12.7212L4.46874 12.884L4.65293 12.8061ZM8.99664 10.2982H9.19664V9.95182L8.89664 10.125L8.99664 10.2982ZM8.99664 15.352L9.01122 15.5515L9.19664 15.5379V15.352H8.99664ZM8.7114 15.4826L8.56998 15.3412L8.7114 15.4826ZM9.22871 16.2383L9.32572 16.0634L9.19389 15.9902L9.08729 16.0968L9.22871 16.2383ZM9.71765 16.2038L9.85907 16.0624L9.73601 15.9393L9.59713 16.0442L9.71765 16.2038ZM11.3606 17.8468L11.5021 17.7054L11.5021 17.7054L11.3606 17.8468ZM11.9971 17.2103L12.1385 17.0689L12.1385 17.0689L11.9971 17.2103ZM10.248 15.4612L10.1065 15.6026L10.1065 15.6026L10.248 15.4612ZM9.89676 15.3306H9.69676V15.5457L9.91132 15.53L9.89676 15.3306ZM9.89676 10.3228L9.99676 10.1496L9.69676 9.97644V10.3228H9.89676ZM14.2242 12.8213L14.4081 12.9L14.4779 12.7368L14.3242 12.6481L14.2242 12.8213ZM14.2034 13.1145L14.3966 13.0628L14.3966 13.0628L14.2034 13.1145ZM14.8436 15.5039L15.0368 15.4522L15.0368 15.4522L14.8436 15.5039ZM15.7131 15.271L15.9063 15.2192L15.9063 15.2192L15.7131 15.271ZM15.1273 13.0849L15.0282 12.9111L14.8942 12.9876L14.9341 13.1366L15.1273 13.0849ZM15.2937 12.9191L15.4669 13.0191L15.4669 13.0191L15.2937 12.9191ZM15.3525 12.6563L15.3007 12.4631L15.139 12.5065L15.1532 12.6733L15.3525 12.6563ZM17.5682 12.0626L17.5164 11.8694L17.5164 11.8694L17.5682 12.0626ZM17.8864 11.5114L18.0796 11.4597L18.0796 11.4597L17.8864 11.5114ZM17.3352 11.1932L17.3869 11.3864L17.3869 11.3864L17.3352 11.1932ZM14.9458 11.8334L14.894 11.6402L14.894 11.6402L14.9458 11.8334ZM14.6735 12.0414L14.5735 12.2146L14.746 12.3141L14.8463 12.1421L14.6735 12.0414ZM10.3255 9.53102L10.2255 9.35781L9.9255 9.53102L10.2255 9.70422L10.3255 9.53102ZM14.7709 6.96448L14.9441 6.86447L14.8441 6.69129L14.6709 6.79128L14.7709 6.96448ZM15.0441 7.17414L14.9924 7.36732L14.9924 7.36732L15.0441 7.17414ZM17.4335 7.81437L17.4853 7.62119L17.4853 7.62119L17.4335 7.81437ZM17.9847 7.49614L18.1779 7.5479L18.1779 7.5479L17.9847 7.49614ZM17.6665 6.94493L17.6147 7.13812L17.6147 7.13812L17.6665 6.94493ZM15.3856 6.33378L15.1858 6.34063L15.1908 6.48864L15.3339 6.52696L15.3856 6.33378ZM15.3255 6.12456L15.4987 6.02457L15.4987 6.02456L15.3255 6.12456ZM15.1957 5.98204L15.0025 5.93028L14.9664 6.06497L15.0803 6.14541L15.1957 5.98204ZM15.7948 3.74599L15.6017 3.69423L15.6017 3.69423L15.7948 3.74599ZM15.4766 3.19479L15.5284 3.0016L15.5284 3.0016L15.4766 3.19479ZM14.9254 3.51303L14.7322 3.46126L14.7322 3.46126L14.9254 3.51303ZM14.2852 5.90243L14.092 5.85067L14.092 5.85067L14.2852 5.90243ZM14.3052 6.19395L14.4052 6.36716L14.5583 6.2788L14.4894 6.11604L14.3052 6.19395ZM9.89676 8.73919H9.69676V9.0856L9.99676 8.9124L9.89676 8.73919ZM9.89676 3.64807L9.91098 3.44858L9.69676 3.43331V3.64807H9.89676ZM10.2472 3.5174L10.1058 3.37598L10.1058 3.37598L10.2472 3.5174ZM11.9964 1.76823L11.8549 1.62681L11.8549 1.62681L11.9964 1.76823ZM11.9964 1.13176L11.8549 1.27318L11.8549 1.27318L11.9964 1.13176ZM11.3599 1.13176L11.2185 0.990336L11.2185 0.990336L11.3599 1.13176ZM9.4467 2.79277V2.99277C9.48777 2.99277 9.52598 3.00252 9.5597 3.01965L9.65029 2.84134L9.74089 2.66304C9.65233 2.61804 9.55218 2.59277 9.4467 2.59277V2.79277ZM9.27248 2.82773L9.34996 3.01211C9.37945 2.99972 9.41201 2.99277 9.4467 2.99277V2.79277V2.59277C9.35785 2.59277 9.27267 2.61071 9.195 2.64335L9.27248 2.82773ZM7.59795 1.1532L7.45652 1.29462L9.13106 2.96915L9.27248 2.82773L9.4139 2.68631L7.73937 1.01178L7.59795 1.1532ZM6.96147 1.1532L7.10289 1.29462C7.20054 1.19697 7.35887 1.19697 7.45652 1.29462L7.59795 1.1532L7.73937 1.01178C7.4855 0.757917 7.07391 0.757918 6.82005 1.01178L6.96147 1.1532ZM6.96147 1.78968L7.10289 1.64826C7.00524 1.5506 7.00524 1.39228 7.10289 1.29462L6.96147 1.1532L6.82005 1.01178C6.56619 1.26564 6.56618 1.67724 6.82005 1.9311L6.96147 1.78968ZM8.71063 3.53884L8.85206 3.39742L7.10289 1.64826L6.96147 1.78968L6.82005 1.9311L8.56921 3.68027L8.71063 3.53884ZM8.99664 3.66951L9.01088 3.47002C8.95284 3.46588 8.89643 3.4418 8.85206 3.39742L8.71063 3.53884L8.56921 3.68026C8.68419 3.79524 8.83202 3.85828 8.98241 3.86901L8.99664 3.66951ZM8.99664 8.76381H9.19664V3.66951H8.99664H8.79664V8.76381H8.99664ZM4.7005 6.28343L4.6005 6.45663L8.89664 8.93701L8.99664 8.76381L9.09664 8.5906L4.8005 6.11022L4.7005 6.28343ZM4.7111 6.01625L4.51792 6.06802C4.53162 6.11916 4.52851 6.17027 4.5121 6.2163L4.7005 6.28343L4.8889 6.35055C4.93167 6.23052 4.93966 6.09651 4.90429 5.96449L4.7111 6.01625ZM4.07086 3.62685L3.87768 3.67861L4.51792 6.06802L4.7111 6.01625L4.90429 5.96449L4.26405 3.57509L4.07086 3.62685ZM3.51966 3.30861L3.57142 3.5018C3.70482 3.46605 3.84193 3.54522 3.87768 3.67861L4.07086 3.62685L4.26405 3.57509C4.17113 3.2283 3.81468 3.02251 3.46789 3.11543L3.51966 3.30861ZM3.20142 3.85982L3.3946 3.80805C3.35886 3.67466 3.43802 3.53754 3.57142 3.5018L3.51966 3.30861L3.46789 3.11543C3.12111 3.20835 2.91531 3.5648 3.00823 3.91158L3.20142 3.85982ZM3.77447 5.99846L3.96765 5.9467L3.3946 3.80805L3.20142 3.85982L3.00823 3.91158L3.58128 6.05023L3.77447 5.99846ZM3.60089 6.16825L3.77409 6.26825C3.79804 6.22677 3.83163 6.19514 3.87036 6.17398L3.77447 5.99846L3.67858 5.82295C3.57725 5.87831 3.48937 5.96141 3.42768 6.06825L3.60089 6.16825ZM3.54071 6.37963L3.74063 6.38552C3.7418 6.34576 3.7525 6.30565 3.77409 6.26825L3.60089 6.16825L3.42768 6.06825C3.37216 6.16441 3.34387 6.26943 3.3408 6.37374L3.54071 6.37963ZM1.45082 6.93961L1.50258 7.1328L3.59248 6.57281L3.54071 6.37963L3.48895 6.18644L1.39905 6.74643L1.45082 6.93961ZM1.13258 7.49082L1.32576 7.43905C1.29002 7.30566 1.36918 7.16854 1.50258 7.1328L1.45082 6.93961L1.39905 6.74643C1.05227 6.83935 0.846473 7.1958 0.939393 7.54258L1.13258 7.49082ZM1.68378 7.80906L1.63202 7.61587C1.49862 7.65162 1.36151 7.57245 1.32576 7.43905L1.13258 7.49082L0.939393 7.54258C1.03231 7.88937 1.38876 8.09516 1.73555 8.00224L1.68378 7.80906ZM4.07319 7.16882L4.02142 6.97563L1.63202 7.61587L1.68378 7.80906L1.73555 8.00224L4.12495 7.362L4.07319 7.16882ZM4.25883 7.06779L4.12448 6.91964C4.09618 6.9453 4.06149 6.9649 4.02142 6.97563L4.07319 7.16882L4.12495 7.362C4.22788 7.33442 4.31888 7.28333 4.39319 7.21594L4.25883 7.06779ZM8.52527 9.53102L8.62527 9.35781L4.35883 6.89459L4.25883 7.06779L4.15883 7.241L8.42527 9.70422L8.52527 9.53102ZM4.1873 12.0355L4.2873 12.2088L8.62527 9.70422L8.52527 9.53102L8.42527 9.35781L4.0873 11.8623L4.1873 12.0355ZM3.91406 11.8259L3.8623 12.0191C3.92903 12.037 3.98196 12.0799 4.01411 12.1356L4.1873 12.0355L4.36048 11.9355C4.27745 11.7918 4.13912 11.6792 3.96583 11.6327L3.91406 11.8259ZM1.52466 11.1857L1.4729 11.3789L3.8623 12.0191L3.91406 11.8259L3.96583 11.6327L1.57642 10.9925L1.52466 11.1857ZM0.973455 11.5039L1.16664 11.5557C1.20238 11.4223 1.3395 11.3431 1.4729 11.3789L1.52466 11.1857L1.57642 10.9925C1.22964 10.8996 0.87319 11.1054 0.78027 11.4522L0.973455 11.5039ZM1.29169 12.0551L1.34346 11.8619C1.21006 11.8262 1.1309 11.6891 1.16664 11.5557L0.973455 11.5039L0.78027 11.4522C0.687349 11.7989 0.893146 12.1554 1.23993 12.2483L1.29169 12.0551ZM3.5726 12.6663L3.62437 12.4731L1.34346 11.8619L1.29169 12.0551L1.23993 12.2483L3.52084 12.8595L3.5726 12.6663ZM3.63271 12.8754L3.80591 12.7754C3.78454 12.7384 3.77384 12.6987 3.77248 12.6594L3.5726 12.6663L3.37272 12.6732C3.37628 12.7764 3.40457 12.8803 3.4595 12.9754L3.63271 12.8754ZM3.76252 13.0179L3.87791 12.8546C3.84952 12.8345 3.82477 12.8081 3.80591 12.7754L3.63271 12.8754L3.4595 12.9754C3.50787 13.0592 3.57245 13.1285 3.64713 13.1813L3.76252 13.0179ZM3.16334 15.2541L3.35653 15.3058L3.9557 13.0697L3.76252 13.0179L3.56933 12.9662L2.97016 15.2023L3.16334 15.2541ZM3.48158 15.8053L3.53335 15.6121C3.39995 15.5763 3.32079 15.4392 3.35653 15.3058L3.16334 15.2541L2.97016 15.2023C2.87724 15.5491 3.08304 15.9055 3.42982 15.9985L3.48158 15.8053ZM4.03279 15.487L3.8396 15.4353C3.80386 15.5687 3.66674 15.6478 3.53335 15.6121L3.48158 15.8053L3.42982 15.9985C3.7766 16.0914 4.13305 15.8856 4.22597 15.5388L4.03279 15.487ZM4.67303 13.0976L4.47984 13.0459L3.8396 15.4353L4.03279 15.487L4.22597 15.5388L4.86621 13.1494L4.67303 13.0976ZM4.65293 12.8061L4.46874 12.884C4.48968 12.9335 4.49488 12.9897 4.47984 13.0459L4.67303 13.0976L4.86621 13.1494C4.90511 13.0042 4.89155 12.8568 4.83713 12.7282L4.65293 12.8061ZM8.99664 10.2982L8.89664 10.125L4.55293 12.6329L4.65293 12.8061L4.75293 12.9793L9.09664 10.4714L8.99664 10.2982ZM8.99664 15.352H9.19664V10.2982H8.99664H8.79664V15.352H8.99664ZM8.7114 15.4826L8.85282 15.624C8.89709 15.5798 8.95333 15.5557 9.01122 15.5515L8.99664 15.352L8.98207 15.1525C8.83206 15.1635 8.68467 15.2265 8.56998 15.3412L8.7114 15.4826ZM6.96223 17.2318L7.10366 17.3732L8.85282 15.624L8.7114 15.4826L8.56998 15.3412L6.82081 17.0904L6.96223 17.2318ZM6.96223 17.8683L7.10366 17.7268C7.006 17.6292 7.006 17.4709 7.10366 17.3732L6.96223 17.2318L6.82081 17.0904C6.56695 17.3442 6.56695 17.7558 6.82081 18.0097L6.96223 17.8683ZM7.59871 17.8683L7.45729 17.7268C7.35964 17.8245 7.20131 17.8245 7.10366 17.7268L6.96223 17.8683L6.82081 18.0097C7.07468 18.2635 7.48627 18.2635 7.74013 18.0097L7.59871 17.8683ZM9.22871 16.2383L9.08729 16.0968L7.45729 17.7268L7.59871 17.8683L7.74013 18.0097L9.37013 16.3797L9.22871 16.2383ZM9.4467 16.2945V16.0945C9.40242 16.0945 9.36138 16.0831 9.32572 16.0634L9.22871 16.2383L9.13169 16.4132C9.2252 16.465 9.33281 16.4945 9.4467 16.4945V16.2945ZM9.71765 16.2038L9.59713 16.0442C9.55526 16.0758 9.50345 16.0945 9.4467 16.0945V16.2945V16.4945C9.59341 16.4945 9.72929 16.4456 9.83817 16.3634L9.71765 16.2038ZM11.3606 17.8468L11.5021 17.7054L9.85907 16.0624L9.71765 16.2038L9.57623 16.3452L11.2192 17.9882L11.3606 17.8468ZM11.9971 17.8468L11.8557 17.7054C11.758 17.803 11.5997 17.803 11.5021 17.7054L11.3606 17.8468L11.2192 17.9882C11.4731 18.2421 11.8847 18.2421 12.1385 17.9882L11.9971 17.8468ZM11.9971 17.2103L11.8557 17.3518C11.9534 17.4494 11.9534 17.6077 11.8557 17.7054L11.9971 17.8468L12.1385 17.9882C12.3924 17.7344 12.3924 17.3228 12.1385 17.0689L11.9971 17.2103ZM10.248 15.4612L10.1065 15.6026L11.8557 17.3518L11.9971 17.2103L12.1385 17.0689L10.3894 15.3197L10.248 15.4612ZM9.89676 15.3306L9.91132 15.53C9.98173 15.5249 10.0531 15.5491 10.1065 15.6026L10.248 15.4612L10.3894 15.3197C10.2503 15.1807 10.0636 15.1178 9.8822 15.1311L9.89676 15.3306ZM9.89676 10.3228H9.69676V15.3306H9.89676H10.0968V10.3228H9.89676ZM14.2242 12.8213L14.3242 12.6481L9.99676 10.1496L9.89676 10.3228L9.79676 10.4961L14.1242 12.9945L14.2242 12.8213ZM14.2034 13.1145L14.3966 13.0628C14.3815 13.0063 14.3868 12.9497 14.4081 12.9L14.2242 12.8213L14.0403 12.7426C13.9851 12.8718 13.9711 13.0202 14.0102 13.1663L14.2034 13.1145ZM14.8436 15.5039L15.0368 15.4522L14.3966 13.0628L14.2034 13.1145L14.0102 13.1663L14.6505 15.5557L14.8436 15.5039ZM15.3948 15.8222L15.3431 15.629C15.2097 15.6647 15.0726 15.5856 15.0368 15.4522L14.8436 15.5039L14.6505 15.5557C14.7434 15.9025 15.0998 16.1083 15.4466 16.0154L15.3948 15.8222ZM15.7131 15.271L15.5199 15.3227C15.5556 15.4561 15.4765 15.5933 15.3431 15.629L15.3948 15.8222L15.4466 16.0154C15.7934 15.9225 15.9992 15.566 15.9063 15.2192L15.7131 15.271ZM15.1273 13.0849L14.9341 13.1366L15.5199 15.3227L15.7131 15.271L15.9063 15.2192L15.3205 13.0331L15.1273 13.0849ZM15.2937 12.9191L15.1205 12.8191C15.0974 12.8592 15.0653 12.89 15.0282 12.9111L15.1273 13.0849L15.2264 13.2586C15.3234 13.2033 15.4074 13.1223 15.4669 13.0191L15.2937 12.9191ZM15.3525 12.6563L15.1532 12.6733C15.1574 12.7223 15.1472 12.7729 15.1205 12.8191L15.2937 12.9191L15.4669 13.0191C15.5358 12.8998 15.5626 12.7673 15.5517 12.6394L15.3525 12.6563ZM17.5682 12.0626L17.5164 11.8694L15.3007 12.4631L15.3525 12.6563L15.4042 12.8495L17.6199 12.2558L17.5682 12.0626ZM17.8864 11.5114L17.6932 11.5632C17.7289 11.6966 17.6498 11.8337 17.5164 11.8694L17.5682 12.0626L17.6199 12.2558C17.9667 12.1629 18.1725 11.8064 18.0796 11.4597L17.8864 11.5114ZM17.3352 11.1932L17.3869 11.3864C17.5203 11.3506 17.6575 11.4298 17.6932 11.5632L17.8864 11.5114L18.0796 11.4597C17.9867 11.1129 17.6302 10.9071 17.2834 11L17.3352 11.1932ZM14.9458 11.8334L14.9975 12.0266L17.3869 11.3864L17.3352 11.1932L17.2834 11L14.894 11.6402L14.9458 11.8334ZM14.6735 12.0414L14.8463 12.1421C14.8785 12.0869 14.9312 12.0444 14.9975 12.0266L14.9458 11.8334L14.894 11.6402C14.7217 11.6864 14.584 11.798 14.5008 11.9406L14.6735 12.0414ZM10.3255 9.53102L10.2255 9.70422L14.5735 12.2146L14.6735 12.0414L14.7735 11.8682L10.4255 9.35781L10.3255 9.53102ZM14.7709 6.96448L14.6709 6.79128L10.2255 9.35781L10.3255 9.53102L10.4255 9.70422L14.8709 7.13769L14.7709 6.96448ZM14.7709 6.96448L14.5977 7.0645C14.6807 7.20828 14.819 7.32088 14.9924 7.36732L15.0441 7.17414L15.0959 6.98095C15.0291 6.96307 14.9762 6.92014 14.9441 6.86447L14.7709 6.96448ZM15.0441 7.17414L14.9924 7.36732L17.3818 8.00756L17.4335 7.81437L17.4853 7.62119L15.0959 6.98095L15.0441 7.17414ZM17.4335 7.81437L17.3818 8.00756C17.7285 8.10048 18.085 7.89468 18.1779 7.5479L17.9847 7.49614L17.7915 7.44437C17.7558 7.57777 17.6187 7.65693 17.4853 7.62119L17.4335 7.81437ZM17.9847 7.49614L18.1779 7.5479C18.2708 7.20112 18.065 6.84467 17.7183 6.75175L17.6665 6.94493L17.6147 7.13812C17.7481 7.17386 17.8273 7.31097 17.7915 7.44437L17.9847 7.49614ZM17.6665 6.94493L17.7183 6.75175L15.4374 6.14059L15.3856 6.33378L15.3339 6.52696L17.6147 7.13812L17.6665 6.94493ZM15.3255 6.12456L15.1523 6.22456C15.1737 6.2616 15.1844 6.30128 15.1858 6.34063L15.3856 6.33378L15.5855 6.32693C15.582 6.22364 15.5537 6.11976 15.4987 6.02457L15.3255 6.12456ZM15.1957 5.98204L15.0803 6.14541C15.1087 6.16546 15.1335 6.19189 15.1523 6.22456L15.3255 6.12456L15.4987 6.02456C15.4504 5.94076 15.3858 5.87143 15.3111 5.81868L15.1957 5.98204ZM15.7948 3.74599L15.6017 3.69423L15.0025 5.93028L15.1957 5.98204L15.3889 6.03381L15.988 3.79776L15.7948 3.74599ZM15.4766 3.19479L15.4248 3.38797C15.5582 3.42372 15.6374 3.56083 15.6017 3.69423L15.7948 3.74599L15.988 3.79776C16.0809 3.45097 15.8752 3.09452 15.5284 3.0016L15.4766 3.19479ZM14.9254 3.51303L15.1186 3.56479C15.1543 3.43139 15.2914 3.35223 15.4248 3.38797L15.4766 3.19479L15.5284 3.0016C15.1816 2.90868 14.8251 3.11448 14.7322 3.46126L14.9254 3.51303ZM14.2852 5.90243L14.4783 5.95419L15.1186 3.56479L14.9254 3.51303L14.7322 3.46126L14.092 5.85067L14.2852 5.90243ZM14.3052 6.19395L14.4894 6.11604C14.4685 6.06654 14.4633 6.01032 14.4783 5.95419L14.2852 5.90243L14.092 5.85067C14.0531 5.99583 14.0666 6.14324 14.121 6.27186L14.3052 6.19395ZM9.89676 8.73919L9.99676 8.9124L14.4052 6.36716L14.3052 6.19395L14.2052 6.02075L9.79676 8.56599L9.89676 8.73919ZM9.89676 3.64807H9.69676V8.73919H9.89676H10.0968V3.64807H9.89676ZM10.2472 3.5174L10.1058 3.37598C10.0524 3.42933 9.98126 3.45359 9.91098 3.44858L9.89676 3.64807L9.88254 3.84757C10.0636 3.86047 10.2498 3.79762 10.3886 3.65882L10.2472 3.5174ZM11.9964 1.76823L11.8549 1.62681L10.1058 3.37598L10.2472 3.5174L10.3886 3.65882L12.1378 1.90966L11.9964 1.76823ZM11.9964 1.13176L11.8549 1.27318C11.9526 1.37083 11.9526 1.52916 11.8549 1.62681L11.9964 1.76823L12.1378 1.90966C12.3916 1.65579 12.3916 1.2442 12.1378 0.990336L11.9964 1.13176ZM11.3599 1.13176L11.5013 1.27318C11.599 1.17553 11.7573 1.17553 11.8549 1.27318L11.9964 1.13176L12.1378 0.990337C11.8839 0.736473 11.4723 0.736473 11.2185 0.990336L11.3599 1.13176ZM9.65029 2.84134L9.79172 2.98277L11.5013 1.27318L11.3599 1.13176L11.2185 0.990336L9.50887 2.69992L9.65029 2.84134Z" fill="#6F4E37"/>
</svg>
