<svg width="13" height="13" viewBox="0 0 13 13" fill="none" xmlns="http://www.w3.org/2000/svg">
<mask id="mask0_568_12" style="mask-type:luminance" maskUnits="userSpaceOnUse" x="0" y="0" width="13" height="13">
<path d="M0 0H13V13H0V0Z" fill="white"/>
</mask>
<g mask="url(#mask0_568_12)">
<path d="M1.62499 6.5H0.541656M12.4583 6.5H11.375M6.49999 11.375V12.4583M6.49999 0.541668V1.625M3.05282 9.94717L2.28691 10.7131M10.7131 2.28692L9.94716 3.05283M3.05282 3.05283L2.28691 2.28692M10.7131 10.7131L9.94716 9.94717M9.74999 6.5C9.74999 7.36195 9.40758 8.1886 8.79809 8.7981C8.18859 9.40759 7.36194 9.75 6.49999 9.75C5.63804 9.75 4.81139 9.40759 4.20189 8.7981C3.5924 8.1886 3.24999 7.36195 3.24999 6.5C3.24999 5.63805 3.5924 4.8114 4.20189 4.2019C4.81139 3.59241 5.63804 3.25 6.49999 3.25C7.36194 3.25 8.18859 3.59241 8.79809 4.2019C9.40758 4.8114 9.74999 5.63805 9.74999 6.5Z" stroke="#6F4E37" stroke-miterlimit="10" stroke-linecap="round" stroke-linejoin="round"/>
</g>
</svg>
