<svg width="51" height="50" viewBox="0 0 51 50" fill="none" xmlns="http://www.w3.org/2000/svg">
<path d="M26.1455 0.507812C39.6544 0.843716 50.5 11.6954 50.5 25.0322L50.4922 25.665C50.1499 38.921 39.0914 49.5635 25.5 49.5635L24.8545 49.5557C11.5601 49.225 0.844629 38.7104 0.507812 25.665L0.5 25.0322C0.5 11.4837 11.6929 0.500062 25.5 0.5L26.1455 0.507812ZM25.5 0.900391C11.9066 0.900453 0.900391 11.7117 0.900391 25.0322C0.900597 38.3526 11.9067 49.164 25.5 49.1641C39.0933 49.1641 50.1004 38.3526 50.1006 25.0322C50.1006 11.7117 39.0934 0.900391 25.5 0.900391ZM37.5264 13.1719C37.8078 13.1556 38.0494 13.1878 38.2441 13.2861C38.6597 13.4962 38.7573 13.9449 38.7412 14.458C38.7288 14.8487 38.6491 15.3331 38.542 15.8945L38.4277 16.4814L38.4229 16.5088C37.9488 18.9078 37.642 19.7763 36.4785 25.9424L35.9238 28.9297C35.1505 33.1598 34.7351 35.6136 34.4287 37.0225C34.2762 37.7235 34.1471 38.1863 34.0068 38.4844C33.9358 38.6351 33.8565 38.7564 33.7607 38.8457C33.6866 38.9148 33.6063 38.9618 33.5215 38.9912L33.4346 39.0146C33.3902 39.024 33.3438 39.0372 33.2969 39.0518L33.1523 39.1006C32.6947 39.2641 31.5362 39.2711 28.9443 37.3379V37.3369L20.1797 30.998C19.8737 30.7763 19.8465 30.3297 20.123 30.0723L32.2002 18.8623L31.6523 19.1328C31.0893 19.4139 22.9611 24.1687 17.3193 27.8467L16.2266 28.5664C16.1158 28.6401 15.9861 28.6734 15.8574 28.665L15.7285 28.6426L11.5176 27.4297V27.4287C9.36246 26.8925 8.54633 26.3462 8.23438 25.9824L8.12891 25.8379C8.09857 25.7874 8.06973 25.734 8.04297 25.6807L7.96875 25.5225C7.92807 25.4297 7.89648 25.304 7.91309 25.1562C7.92997 25.0074 7.99503 24.8489 8.125 24.6895C8.37949 24.3778 8.891 24.0504 9.83984 23.7354C14.5255 21.8275 26.6078 17.4175 33.1504 14.6289L34.1738 14.2012C35.1316 13.8116 35.8966 13.5344 36.501 13.3662C36.9037 13.2542 37.2436 13.1884 37.5264 13.1719Z" fill="white"/>
</svg>
