<svg width="51" height="50" viewBox="0 0 51 50" fill="none" xmlns="http://www.w3.org/2000/svg">
<path d="M26.1455 0.660645C39.654 0.9946 50.4998 11.7787 50.5 25.0317L50.4912 25.6616C50.1485 38.8341 39.0909 49.4105 25.5 49.4106L24.8545 49.4019C11.5604 49.0734 0.845068 38.625 0.507812 25.6616L0.5 25.0317C0.500171 11.5682 11.6931 0.652832 25.5 0.652832L26.1455 0.660645ZM25.5 1.0542C11.9044 1.0542 0.900562 11.7985 0.900391 25.0317C0.900661 38.2649 11.9045 49.0103 25.5 49.0103C39.0954 49.0102 50.0993 38.2648 50.0996 25.0317C50.0994 11.7986 39.0955 1.0543 25.5 1.0542ZM39.8047 17.4009C40.0184 17.4068 40.2023 17.4182 40.335 17.437C40.3992 17.4462 40.464 17.4584 40.5166 17.478C40.5421 17.4876 40.5783 17.5041 40.6113 17.5317C40.6457 17.5606 40.6953 17.6194 40.6953 17.7075C40.695 19.8036 39.7242 21.8677 38.5342 23.7046C37.6427 25.0805 36.6109 26.353 35.7549 27.4243L34.9688 28.4253C34.9117 28.5014 34.9219 28.6208 35.0049 28.6938L35.6094 29.2349C38.5253 31.8867 39.8136 33.7339 40.2363 34.9546C40.4621 35.6068 40.4512 36.1107 40.2695 36.4634C40.0843 36.8225 39.7417 36.9858 39.4082 36.9858H34.5908C34.3628 36.9857 34.1642 36.8244 34.0039 36.6489C33.8342 36.4631 33.6582 36.2057 33.4756 35.9146C33.1002 35.316 32.6988 34.5796 32.2129 33.8491C31.7319 33.126 31.1959 32.456 30.5918 32.0308C29.9995 31.6139 29.3514 31.4371 28.6152 31.6714C28.1491 31.9034 27.9064 32.3048 27.7637 32.8149C27.6167 33.3409 27.5846 33.9422 27.5146 34.5562C27.4469 35.1507 27.3421 35.7614 27.0215 36.2212C26.6871 36.7002 26.1425 36.9858 25.2783 36.9858C22.1707 36.9858 19.7113 36.0351 17.0088 34.1558L16.4648 33.7671C13.3123 31.4615 10.9858 28.1037 9.53711 25.0474C8.81242 23.5183 8.30419 22.0586 8.02246 20.8374C7.88169 20.2271 7.79724 19.6725 7.77051 19.1968C7.744 18.7242 7.77367 18.3153 7.87305 18.0034L7.88574 17.9497C7.89231 17.9215 7.90456 17.8754 7.93164 17.8286L7.97461 17.771C8.02176 17.719 8.08194 17.6836 8.14062 17.6587C8.21968 17.6252 8.31713 17.6014 8.42871 17.5835C8.65279 17.5476 8.97734 17.5273 9.42773 17.5161C10.3316 17.4938 11.7886 17.5062 14.0684 17.5073L14.1758 17.5171C14.4204 17.5615 14.6188 17.7544 14.665 18.0044L14.7764 18.5728C15.3655 21.3822 16.3778 23.7189 17.4922 25.3774C18.0866 26.2621 18.7072 26.949 19.3027 27.4126C19.8406 27.8313 20.3458 28.0557 20.7852 28.0972C20.7955 28.0004 20.8036 27.8612 20.8076 27.689C20.8161 27.3241 20.8103 26.8308 20.7988 26.3237C20.7875 25.8217 20.7702 25.3015 20.7559 24.8853L20.7305 24.0669V21.0103C20.7304 20.991 20.7269 20.9705 20.7207 20.9507L20.6934 20.894C20.1728 20.1238 19.8377 19.5272 19.6895 19.0659C19.5405 18.602 19.5646 18.2135 19.8574 17.9438C19.9927 17.8195 20.1715 17.7361 20.373 17.6772C20.5753 17.6183 20.8142 17.5807 21.082 17.5562C21.6172 17.5071 22.3021 17.5073 23.1045 17.5073L23.8623 17.5103C24.5708 17.5169 25.1334 17.5339 25.5811 17.562C26.1748 17.5994 26.5801 17.6568 26.8613 17.7437C27.1494 17.8327 27.3264 17.9589 27.4385 18.1392C27.4909 18.2236 27.5248 18.3119 27.5508 18.395C27.5637 18.4365 27.5754 18.48 27.5869 18.521C27.5986 18.5627 27.6101 18.6039 27.623 18.646L27.6445 18.7358C27.6495 18.7667 27.6523 18.799 27.6523 18.8315V26.9966C27.6525 27.0364 27.6638 27.0715 27.6797 27.0952C27.6946 27.1173 27.7125 27.129 27.7314 27.1333L27.8574 27.1528C28.1711 27.1806 28.6118 27.0755 29.1875 26.6733C29.8454 26.2136 30.6624 25.3758 31.6348 23.9536L31.875 23.5923C33.0329 21.8103 33.5247 20.3674 33.8428 19.3481C34.0097 18.8132 34.1374 18.3636 34.293 18.0562C34.3726 17.899 34.4692 17.7597 34.5967 17.6606C34.7291 17.5579 34.8838 17.5074 35.0605 17.5073L35.6035 17.4966C36.2682 17.4775 37.2569 17.4364 38.1807 17.4126C38.7922 17.3969 39.3744 17.3889 39.8047 17.4009Z" fill="white"/>
</svg>
