<svg width="20" height="19" viewBox="0 0 20 19" fill="none" xmlns="http://www.w3.org/2000/svg">
<path d="M18.0556 2.10739C20.862 5.30313 19.7675 11.0896 15.5214 15.1972C11.202 19.3757 5.25284 20.2388 2.19523 17.1435C2.42092 17.1191 2.65527 17.0882 2.8964 17.04C4.34183 16.7508 6.06155 15.9813 7.9589 14.084C9.56886 12.4738 9.95586 10.5403 10.4941 8.707C11.0337 6.8687 11.7304 5.08552 13.9179 3.62692L14.1923 3.44919C15.5486 2.59578 16.669 2.26919 17.4853 2.1572C17.698 2.12802 17.8877 2.11318 18.0556 2.10739ZM4.49601 3.80075C8.75676 -0.321052 14.6025 -1.21487 17.6952 1.73239C17.6101 1.74025 17.5216 1.74921 17.4306 1.76169C16.5565 1.88168 15.3828 2.22809 13.9804 3.11032L13.6962 3.29392C11.3922 4.83009 10.6596 6.72271 10.1103 8.59372C9.55949 10.4699 9.1966 12.2808 7.6757 13.8017C5.82971 15.6476 4.17948 16.376 2.8173 16.6484C2.48005 16.7158 2.16104 16.7537 1.86027 16.7754C-0.818793 13.557 0.301622 7.85861 4.49601 3.80075Z" fill="#6F4E37"/>
</svg>
